%TF.GenerationSoftware,KiCad,Pcbnew,9.0.2*%
%TF.CreationDate,2025-08-22T17:17:19-07:00*%
%TF.ProjectId,RC,52432e6b-6963-4616-945f-706362585858,rev?*%
%TF.SameCoordinates,Original*%
%TF.FileFunction,Paste,Top*%
%TF.FilePolarity,Positive*%
%FSLAX46Y46*%
G04 Gerber Fmt 4.6, Leading zero omitted, Abs format (unit mm)*
G04 Created by KiCad (PCBNEW 9.0.2) date 2025-08-22 17:17:19*
%MOMM*%
%LPD*%
G01*
G04 APERTURE LIST*
G04 Aperture macros list*
%AMRoundRect*
0 Rectangle with rounded corners*
0 $1 Rounding radius*
0 $2 $3 $4 $5 $6 $7 $8 $9 X,Y pos of 4 corners*
0 Add a 4 corners polygon primitive as box body*
4,1,4,$2,$3,$4,$5,$6,$7,$8,$9,$2,$3,0*
0 Add four circle primitives for the rounded corners*
1,1,$1+$1,$2,$3*
1,1,$1+$1,$4,$5*
1,1,$1+$1,$6,$7*
1,1,$1+$1,$8,$9*
0 Add four rect primitives between the rounded corners*
20,1,$1+$1,$2,$3,$4,$5,0*
20,1,$1+$1,$4,$5,$6,$7,0*
20,1,$1+$1,$6,$7,$8,$9,0*
20,1,$1+$1,$8,$9,$2,$3,0*%
G04 Aperture macros list end*
%ADD10RoundRect,0.150000X-0.150000X0.587500X-0.150000X-0.587500X0.150000X-0.587500X0.150000X0.587500X0*%
%ADD11RoundRect,0.150000X0.150000X-0.587500X0.150000X0.587500X-0.150000X0.587500X-0.150000X-0.587500X0*%
%ADD12RoundRect,0.150000X0.587500X0.150000X-0.587500X0.150000X-0.587500X-0.150000X0.587500X-0.150000X0*%
%ADD13RoundRect,0.225000X-0.225000X-0.250000X0.225000X-0.250000X0.225000X0.250000X-0.225000X0.250000X0*%
%ADD14RoundRect,0.250000X-0.320000X-0.295000X0.320000X-0.295000X0.320000X0.295000X-0.320000X0.295000X0*%
%ADD15RoundRect,0.200000X-0.200000X-0.275000X0.200000X-0.275000X0.200000X0.275000X-0.200000X0.275000X0*%
%ADD16RoundRect,0.250000X0.250000X0.475000X-0.250000X0.475000X-0.250000X-0.475000X0.250000X-0.475000X0*%
%ADD17RoundRect,0.200000X-0.275000X0.200000X-0.275000X-0.200000X0.275000X-0.200000X0.275000X0.200000X0*%
%ADD18RoundRect,0.250000X0.275000X0.275000X-0.275000X0.275000X-0.275000X-0.275000X0.275000X-0.275000X0*%
%ADD19RoundRect,0.062500X0.350000X0.062500X-0.350000X0.062500X-0.350000X-0.062500X0.350000X-0.062500X0*%
%ADD20RoundRect,0.062500X0.062500X0.350000X-0.062500X0.350000X-0.062500X-0.350000X0.062500X-0.350000X0*%
%ADD21RoundRect,0.200000X0.200000X0.275000X-0.200000X0.275000X-0.200000X-0.275000X0.200000X-0.275000X0*%
%ADD22RoundRect,0.375000X0.625000X0.375000X-0.625000X0.375000X-0.625000X-0.375000X0.625000X-0.375000X0*%
%ADD23RoundRect,0.500000X0.500000X1.400000X-0.500000X1.400000X-0.500000X-1.400000X0.500000X-1.400000X0*%
%ADD24RoundRect,0.150000X-0.875000X-0.150000X0.875000X-0.150000X0.875000X0.150000X-0.875000X0.150000X0*%
%ADD25RoundRect,0.250000X-0.525000X-0.250000X0.525000X-0.250000X0.525000X0.250000X-0.525000X0.250000X0*%
%ADD26RoundRect,0.250000X-0.450000X0.262500X-0.450000X-0.262500X0.450000X-0.262500X0.450000X0.262500X0*%
%ADD27RoundRect,0.250000X-0.250000X0.525000X-0.250000X-0.525000X0.250000X-0.525000X0.250000X0.525000X0*%
%ADD28R,1.500000X0.900000*%
%ADD29R,0.900000X1.500000*%
%ADD30R,0.900000X0.900000*%
%ADD31RoundRect,0.225000X0.250000X-0.225000X0.250000X0.225000X-0.250000X0.225000X-0.250000X-0.225000X0*%
%ADD32R,0.400000X1.650000*%
%ADD33R,1.825000X0.700000*%
%ADD34R,2.000000X1.500000*%
%ADD35R,1.350000X2.000000*%
%ADD36R,1.430000X2.500000*%
%ADD37RoundRect,0.225000X0.225000X0.250000X-0.225000X0.250000X-0.225000X-0.250000X0.225000X-0.250000X0*%
%ADD38RoundRect,0.175000X0.175000X0.325000X-0.175000X0.325000X-0.175000X-0.325000X0.175000X-0.325000X0*%
%ADD39RoundRect,0.150000X0.200000X0.150000X-0.200000X0.150000X-0.200000X-0.150000X0.200000X-0.150000X0*%
%ADD40RoundRect,0.200000X0.275000X-0.200000X0.275000X0.200000X-0.275000X0.200000X-0.275000X-0.200000X0*%
%ADD41RoundRect,0.250000X0.475000X-0.250000X0.475000X0.250000X-0.475000X0.250000X-0.475000X-0.250000X0*%
%ADD42RoundRect,0.218750X-0.218750X-0.256250X0.218750X-0.256250X0.218750X0.256250X-0.218750X0.256250X0*%
G04 APERTURE END LIST*
D10*
%TO.C,Q4*%
X119375000Y-70383400D03*
X117475000Y-70383400D03*
X118425000Y-72258400D03*
%TD*%
%TO.C,Q3*%
X113501300Y-72108300D03*
X112551300Y-70233300D03*
X114451300Y-70233300D03*
%TD*%
D11*
%TO.C,Q1*%
X87950000Y-62862700D03*
X89850000Y-62862700D03*
X88900000Y-60987700D03*
%TD*%
D12*
%TO.C,Q2*%
X123721100Y-62926000D03*
X123721100Y-61026000D03*
X121846100Y-61976000D03*
%TD*%
D13*
%TO.C,C12*%
X149847000Y-51816000D03*
X151397000Y-51816000D03*
%TD*%
D14*
%TO.C,C1*%
X147446000Y-46355000D03*
X149226000Y-46355000D03*
%TD*%
D15*
%TO.C,R13*%
X166118300Y-66650200D03*
X167768300Y-66650200D03*
%TD*%
D13*
%TO.C,C8*%
X166181300Y-64770600D03*
X167731300Y-64770600D03*
%TD*%
D15*
%TO.C,R15*%
X166143700Y-70485600D03*
X167793700Y-70485600D03*
%TD*%
D13*
%TO.C,C11*%
X138226200Y-74549000D03*
X139776200Y-74549000D03*
%TD*%
%TO.C,C9*%
X166167500Y-74168600D03*
X167717500Y-74168600D03*
%TD*%
D15*
%TO.C,R19*%
X138202400Y-68910200D03*
X139852400Y-68910200D03*
%TD*%
D16*
%TO.C,C7*%
X88895000Y-51231800D03*
X86995000Y-51231800D03*
%TD*%
D17*
%TO.C,R4*%
X90678000Y-49594000D03*
X90678000Y-51244000D03*
%TD*%
D18*
%TO.C,U2*%
X126608600Y-54408800D03*
X126608600Y-53108800D03*
X125308600Y-54408800D03*
X125308600Y-53108800D03*
D19*
X127896100Y-55008800D03*
X127896100Y-54508800D03*
X127896100Y-54008800D03*
X127896100Y-53508800D03*
X127896100Y-53008800D03*
X127896100Y-52508800D03*
D20*
X127208600Y-51821300D03*
X126708600Y-51821300D03*
X126208600Y-51821300D03*
X125708600Y-51821300D03*
X125208600Y-51821300D03*
X124708600Y-51821300D03*
D19*
X124021100Y-52508800D03*
X124021100Y-53008800D03*
X124021100Y-53508800D03*
X124021100Y-54008800D03*
X124021100Y-54508800D03*
X124021100Y-55008800D03*
D20*
X124708600Y-55696300D03*
X125208600Y-55696300D03*
X125708600Y-55696300D03*
X126208600Y-55696300D03*
X126708600Y-55696300D03*
X127208600Y-55696300D03*
%TD*%
D21*
%TO.C,R16*%
X167768300Y-72365200D03*
X166118300Y-72365200D03*
%TD*%
D15*
%TO.C,R20*%
X138202400Y-70840600D03*
X139852400Y-70840600D03*
%TD*%
D22*
%TO.C,U3*%
X147345800Y-54954200D03*
D23*
X141045800Y-52654200D03*
D22*
X147345800Y-52654200D03*
X147345800Y-50354200D03*
%TD*%
D24*
%TO.C,U5*%
X93392200Y-69443600D03*
X93392200Y-70713600D03*
X93392200Y-71983600D03*
X93392200Y-73253600D03*
X93392200Y-74523600D03*
X93392200Y-75793600D03*
X93392200Y-77063600D03*
X93392200Y-78333600D03*
X102692200Y-78333600D03*
X102692200Y-77063600D03*
X102692200Y-75793600D03*
X102692200Y-74523600D03*
X102692200Y-73253600D03*
X102692200Y-71983600D03*
X102692200Y-70713600D03*
X102692200Y-69443600D03*
%TD*%
D17*
%TO.C,R2*%
X123520200Y-47790600D03*
X123520200Y-49440600D03*
%TD*%
D25*
%TO.C,BOOT1*%
X121894600Y-65257600D03*
X127144600Y-65257600D03*
X121894600Y-68457600D03*
X127144600Y-68457600D03*
%TD*%
D15*
%TO.C,R25*%
X149797000Y-55372000D03*
X151447000Y-55372000D03*
%TD*%
D26*
%TO.C,R1*%
X125450600Y-47498000D03*
X125450600Y-49323000D03*
%TD*%
D15*
%TO.C,R18*%
X138202400Y-66878200D03*
X139852400Y-66878200D03*
%TD*%
D13*
%TO.C,C10*%
X138252200Y-64891000D03*
X139802200Y-64891000D03*
%TD*%
D15*
%TO.C,R22*%
X138177000Y-77343000D03*
X139827000Y-77343000D03*
%TD*%
D27*
%TO.C,RESET1*%
X88900000Y-53416200D03*
X88900000Y-58666200D03*
X85700000Y-53416200D03*
X85700000Y-58666200D03*
%TD*%
D28*
%TO.C,U1*%
X97172400Y-45504200D03*
X97172400Y-46774200D03*
X97172400Y-48044200D03*
X97172400Y-49314200D03*
X97172400Y-50584200D03*
X97172400Y-51854200D03*
X97172400Y-53124200D03*
X97172400Y-54394200D03*
X97172400Y-55664200D03*
X97172400Y-56934200D03*
X97172400Y-58204200D03*
X97172400Y-59474200D03*
X97172400Y-60744200D03*
X97172400Y-62014200D03*
D29*
X100207400Y-63264200D03*
X101477400Y-63264200D03*
X102747400Y-63264200D03*
X104017400Y-63264200D03*
X105287400Y-63264200D03*
X106557400Y-63264200D03*
X107827400Y-63264200D03*
X109097400Y-63264200D03*
X110367400Y-63264200D03*
X111637400Y-63264200D03*
D28*
X114672400Y-62014200D03*
X114672400Y-60744200D03*
X114672400Y-59474200D03*
X114672400Y-58204200D03*
X114672400Y-56934200D03*
X114672400Y-55664200D03*
X114672400Y-54394200D03*
X114672400Y-53124200D03*
X114672400Y-51854200D03*
X114672400Y-50584200D03*
X114672400Y-49314200D03*
X114672400Y-48044200D03*
X114672400Y-46774200D03*
X114672400Y-45504200D03*
D30*
X105822400Y-51824200D03*
X104422400Y-51824200D03*
X103022400Y-51824200D03*
X105822400Y-53224200D03*
X104422400Y-53224200D03*
X103022400Y-53224200D03*
X105822400Y-54624200D03*
X104422400Y-54624200D03*
X103022400Y-54624200D03*
%TD*%
D31*
%TO.C,C4*%
X127330200Y-49416000D03*
X127330200Y-47866000D03*
%TD*%
D15*
%TO.C,R23*%
X77598000Y-87376000D03*
X79248000Y-87376000D03*
%TD*%
D32*
%TO.C,J1*%
X139176400Y-42977200D03*
X138526400Y-42977200D03*
X137876400Y-42977200D03*
X137226400Y-42977200D03*
X136576400Y-42977200D03*
D33*
X140826400Y-41777200D03*
D34*
X140726400Y-43077200D03*
D35*
X140606400Y-41027200D03*
D36*
X138836400Y-39827200D03*
X136916400Y-39827200D03*
D35*
X135126400Y-41027200D03*
D34*
X134976400Y-43097200D03*
D33*
X134876400Y-41777200D03*
%TD*%
D37*
%TO.C,C6*%
X94218800Y-47371000D03*
X92668800Y-47371000D03*
%TD*%
D15*
%TO.C,R17*%
X166118300Y-77343000D03*
X167768300Y-77343000D03*
%TD*%
D14*
%TO.C,C2*%
X149985000Y-53594000D03*
X151765000Y-53594000D03*
%TD*%
D15*
%TO.C,R9*%
X118378300Y-68148200D03*
X120028300Y-68148200D03*
%TD*%
D13*
%TO.C,C13*%
X147308000Y-48133000D03*
X148858000Y-48133000D03*
%TD*%
D38*
%TO.C,D1*%
X138261600Y-49811500D03*
D39*
X138261600Y-48111500D03*
X136261600Y-48111500D03*
X136261600Y-50011500D03*
%TD*%
D16*
%TO.C,C5*%
X94168000Y-45491400D03*
X92268000Y-45491400D03*
%TD*%
D15*
%TO.C,R24*%
X180136800Y-87299800D03*
X181786800Y-87299800D03*
%TD*%
D40*
%TO.C,R3*%
X121843800Y-49452800D03*
X121843800Y-47802800D03*
%TD*%
%TO.C,R11*%
X119406500Y-76199000D03*
X119406500Y-74549000D03*
%TD*%
D15*
%TO.C,R10*%
X113742200Y-68122800D03*
X115392200Y-68122800D03*
%TD*%
%TO.C,R14*%
X166118300Y-68631400D03*
X167768300Y-68631400D03*
%TD*%
D41*
%TO.C,C3*%
X129209800Y-49616400D03*
X129209800Y-47716400D03*
%TD*%
D15*
%TO.C,R5*%
X126415800Y-61391800D03*
X128065800Y-61391800D03*
%TD*%
D40*
%TO.C,R6*%
X87935200Y-66382400D03*
X87935200Y-64732400D03*
%TD*%
D21*
%TO.C,R8*%
X128066800Y-63042800D03*
X126416800Y-63042800D03*
%TD*%
D17*
%TO.C,R12*%
X112395000Y-74549000D03*
X112395000Y-76199000D03*
%TD*%
D21*
%TO.C,R7*%
X95325200Y-61950600D03*
X93675200Y-61950600D03*
%TD*%
D42*
%TO.C,D2*%
X149860000Y-57150000D03*
X151435000Y-57150000D03*
%TD*%
D21*
%TO.C,R21*%
X139827000Y-72644000D03*
X138177000Y-72644000D03*
%TD*%
M02*
