%TF.GenerationSoftware,KiCad,Pcbnew,9.0.2*%
%TF.CreationDate,2025-08-22T17:17:19-07:00*%
%TF.ProjectId,RC,52432e6b-6963-4616-945f-706362585858,rev?*%
%TF.SameCoordinates,Original*%
%TF.FileFunction,Legend,Top*%
%TF.FilePolarity,Positive*%
%FSLAX46Y46*%
G04 Gerber Fmt 4.6, Leading zero omitted, Abs format (unit mm)*
G04 Created by KiCad (PCBNEW 9.0.2) date 2025-08-22 17:17:19*
%MOMM*%
%LPD*%
G01*
G04 APERTURE LIST*
%ADD10C,0.150000*%
%ADD11C,0.100000*%
%ADD12C,0.120000*%
G04 APERTURE END LIST*
D10*
X148215579Y-53895666D02*
X148977484Y-53895666D01*
X148596531Y-54276619D02*
X148596531Y-53514714D01*
X152501294Y-53895666D02*
X153263199Y-53895666D01*
X145650179Y-46859866D02*
X146412084Y-46859866D01*
X146031131Y-47240819D02*
X146031131Y-46478914D01*
X149935894Y-46859866D02*
X150697799Y-46859866D01*
X148596579Y-58391466D02*
X149358484Y-58391466D01*
X152120389Y-58391466D02*
X152882294Y-58391466D01*
X152501341Y-58772419D02*
X152501341Y-58010514D01*
X121718161Y-72406657D02*
X121622923Y-72359038D01*
X121622923Y-72359038D02*
X121527685Y-72263800D01*
X121527685Y-72263800D02*
X121384828Y-72120942D01*
X121384828Y-72120942D02*
X121289590Y-72073323D01*
X121289590Y-72073323D02*
X121194352Y-72073323D01*
X121241971Y-72311419D02*
X121146733Y-72263800D01*
X121146733Y-72263800D02*
X121051495Y-72168561D01*
X121051495Y-72168561D02*
X121003876Y-71978085D01*
X121003876Y-71978085D02*
X121003876Y-71644752D01*
X121003876Y-71644752D02*
X121051495Y-71454276D01*
X121051495Y-71454276D02*
X121146733Y-71359038D01*
X121146733Y-71359038D02*
X121241971Y-71311419D01*
X121241971Y-71311419D02*
X121432447Y-71311419D01*
X121432447Y-71311419D02*
X121527685Y-71359038D01*
X121527685Y-71359038D02*
X121622923Y-71454276D01*
X121622923Y-71454276D02*
X121670542Y-71644752D01*
X121670542Y-71644752D02*
X121670542Y-71978085D01*
X121670542Y-71978085D02*
X121622923Y-72168561D01*
X121622923Y-72168561D02*
X121527685Y-72263800D01*
X121527685Y-72263800D02*
X121432447Y-72311419D01*
X121432447Y-72311419D02*
X121241971Y-72311419D01*
X122527685Y-71644752D02*
X122527685Y-72311419D01*
X122289590Y-71263800D02*
X122051495Y-71978085D01*
X122051495Y-71978085D02*
X122670542Y-71978085D01*
X110496361Y-71492257D02*
X110401123Y-71444638D01*
X110401123Y-71444638D02*
X110305885Y-71349400D01*
X110305885Y-71349400D02*
X110163028Y-71206542D01*
X110163028Y-71206542D02*
X110067790Y-71158923D01*
X110067790Y-71158923D02*
X109972552Y-71158923D01*
X110020171Y-71397019D02*
X109924933Y-71349400D01*
X109924933Y-71349400D02*
X109829695Y-71254161D01*
X109829695Y-71254161D02*
X109782076Y-71063685D01*
X109782076Y-71063685D02*
X109782076Y-70730352D01*
X109782076Y-70730352D02*
X109829695Y-70539876D01*
X109829695Y-70539876D02*
X109924933Y-70444638D01*
X109924933Y-70444638D02*
X110020171Y-70397019D01*
X110020171Y-70397019D02*
X110210647Y-70397019D01*
X110210647Y-70397019D02*
X110305885Y-70444638D01*
X110305885Y-70444638D02*
X110401123Y-70539876D01*
X110401123Y-70539876D02*
X110448742Y-70730352D01*
X110448742Y-70730352D02*
X110448742Y-71063685D01*
X110448742Y-71063685D02*
X110401123Y-71254161D01*
X110401123Y-71254161D02*
X110305885Y-71349400D01*
X110305885Y-71349400D02*
X110210647Y-71397019D01*
X110210647Y-71397019D02*
X110020171Y-71397019D01*
X110782076Y-70397019D02*
X111401123Y-70397019D01*
X111401123Y-70397019D02*
X111067790Y-70777971D01*
X111067790Y-70777971D02*
X111210647Y-70777971D01*
X111210647Y-70777971D02*
X111305885Y-70825590D01*
X111305885Y-70825590D02*
X111353504Y-70873209D01*
X111353504Y-70873209D02*
X111401123Y-70968447D01*
X111401123Y-70968447D02*
X111401123Y-71206542D01*
X111401123Y-71206542D02*
X111353504Y-71301780D01*
X111353504Y-71301780D02*
X111305885Y-71349400D01*
X111305885Y-71349400D02*
X111210647Y-71397019D01*
X111210647Y-71397019D02*
X110924933Y-71397019D01*
X110924933Y-71397019D02*
X110829695Y-71349400D01*
X110829695Y-71349400D02*
X110782076Y-71301780D01*
X86097161Y-62472957D02*
X86001923Y-62425338D01*
X86001923Y-62425338D02*
X85906685Y-62330100D01*
X85906685Y-62330100D02*
X85763828Y-62187242D01*
X85763828Y-62187242D02*
X85668590Y-62139623D01*
X85668590Y-62139623D02*
X85573352Y-62139623D01*
X85620971Y-62377719D02*
X85525733Y-62330100D01*
X85525733Y-62330100D02*
X85430495Y-62234861D01*
X85430495Y-62234861D02*
X85382876Y-62044385D01*
X85382876Y-62044385D02*
X85382876Y-61711052D01*
X85382876Y-61711052D02*
X85430495Y-61520576D01*
X85430495Y-61520576D02*
X85525733Y-61425338D01*
X85525733Y-61425338D02*
X85620971Y-61377719D01*
X85620971Y-61377719D02*
X85811447Y-61377719D01*
X85811447Y-61377719D02*
X85906685Y-61425338D01*
X85906685Y-61425338D02*
X86001923Y-61520576D01*
X86001923Y-61520576D02*
X86049542Y-61711052D01*
X86049542Y-61711052D02*
X86049542Y-62044385D01*
X86049542Y-62044385D02*
X86001923Y-62234861D01*
X86001923Y-62234861D02*
X85906685Y-62330100D01*
X85906685Y-62330100D02*
X85811447Y-62377719D01*
X85811447Y-62377719D02*
X85620971Y-62377719D01*
X87001923Y-62377719D02*
X86430495Y-62377719D01*
X86716209Y-62377719D02*
X86716209Y-61377719D01*
X86716209Y-61377719D02*
X86620971Y-61520576D01*
X86620971Y-61520576D02*
X86525733Y-61615814D01*
X86525733Y-61615814D02*
X86430495Y-61663433D01*
X122660661Y-59945457D02*
X122565423Y-59897838D01*
X122565423Y-59897838D02*
X122470185Y-59802600D01*
X122470185Y-59802600D02*
X122327328Y-59659742D01*
X122327328Y-59659742D02*
X122232090Y-59612123D01*
X122232090Y-59612123D02*
X122136852Y-59612123D01*
X122184471Y-59850219D02*
X122089233Y-59802600D01*
X122089233Y-59802600D02*
X121993995Y-59707361D01*
X121993995Y-59707361D02*
X121946376Y-59516885D01*
X121946376Y-59516885D02*
X121946376Y-59183552D01*
X121946376Y-59183552D02*
X121993995Y-58993076D01*
X121993995Y-58993076D02*
X122089233Y-58897838D01*
X122089233Y-58897838D02*
X122184471Y-58850219D01*
X122184471Y-58850219D02*
X122374947Y-58850219D01*
X122374947Y-58850219D02*
X122470185Y-58897838D01*
X122470185Y-58897838D02*
X122565423Y-58993076D01*
X122565423Y-58993076D02*
X122613042Y-59183552D01*
X122613042Y-59183552D02*
X122613042Y-59516885D01*
X122613042Y-59516885D02*
X122565423Y-59707361D01*
X122565423Y-59707361D02*
X122470185Y-59802600D01*
X122470185Y-59802600D02*
X122374947Y-59850219D01*
X122374947Y-59850219D02*
X122184471Y-59850219D01*
X122993995Y-58945457D02*
X123041614Y-58897838D01*
X123041614Y-58897838D02*
X123136852Y-58850219D01*
X123136852Y-58850219D02*
X123374947Y-58850219D01*
X123374947Y-58850219D02*
X123470185Y-58897838D01*
X123470185Y-58897838D02*
X123517804Y-58945457D01*
X123517804Y-58945457D02*
X123565423Y-59040695D01*
X123565423Y-59040695D02*
X123565423Y-59135933D01*
X123565423Y-59135933D02*
X123517804Y-59278790D01*
X123517804Y-59278790D02*
X122946376Y-59850219D01*
X122946376Y-59850219D02*
X123565423Y-59850219D01*
X154093942Y-51794580D02*
X154046323Y-51842200D01*
X154046323Y-51842200D02*
X153903466Y-51889819D01*
X153903466Y-51889819D02*
X153808228Y-51889819D01*
X153808228Y-51889819D02*
X153665371Y-51842200D01*
X153665371Y-51842200D02*
X153570133Y-51746961D01*
X153570133Y-51746961D02*
X153522514Y-51651723D01*
X153522514Y-51651723D02*
X153474895Y-51461247D01*
X153474895Y-51461247D02*
X153474895Y-51318390D01*
X153474895Y-51318390D02*
X153522514Y-51127914D01*
X153522514Y-51127914D02*
X153570133Y-51032676D01*
X153570133Y-51032676D02*
X153665371Y-50937438D01*
X153665371Y-50937438D02*
X153808228Y-50889819D01*
X153808228Y-50889819D02*
X153903466Y-50889819D01*
X153903466Y-50889819D02*
X154046323Y-50937438D01*
X154046323Y-50937438D02*
X154093942Y-50985057D01*
X155046323Y-51889819D02*
X154474895Y-51889819D01*
X154760609Y-51889819D02*
X154760609Y-50889819D01*
X154760609Y-50889819D02*
X154665371Y-51032676D01*
X154665371Y-51032676D02*
X154570133Y-51127914D01*
X154570133Y-51127914D02*
X154474895Y-51175533D01*
X155427276Y-50985057D02*
X155474895Y-50937438D01*
X155474895Y-50937438D02*
X155570133Y-50889819D01*
X155570133Y-50889819D02*
X155808228Y-50889819D01*
X155808228Y-50889819D02*
X155903466Y-50937438D01*
X155903466Y-50937438D02*
X155951085Y-50985057D01*
X155951085Y-50985057D02*
X155998704Y-51080295D01*
X155998704Y-51080295D02*
X155998704Y-51175533D01*
X155998704Y-51175533D02*
X155951085Y-51318390D01*
X155951085Y-51318390D02*
X155379657Y-51889819D01*
X155379657Y-51889819D02*
X155998704Y-51889819D01*
X151725333Y-46714580D02*
X151677714Y-46762200D01*
X151677714Y-46762200D02*
X151534857Y-46809819D01*
X151534857Y-46809819D02*
X151439619Y-46809819D01*
X151439619Y-46809819D02*
X151296762Y-46762200D01*
X151296762Y-46762200D02*
X151201524Y-46666961D01*
X151201524Y-46666961D02*
X151153905Y-46571723D01*
X151153905Y-46571723D02*
X151106286Y-46381247D01*
X151106286Y-46381247D02*
X151106286Y-46238390D01*
X151106286Y-46238390D02*
X151153905Y-46047914D01*
X151153905Y-46047914D02*
X151201524Y-45952676D01*
X151201524Y-45952676D02*
X151296762Y-45857438D01*
X151296762Y-45857438D02*
X151439619Y-45809819D01*
X151439619Y-45809819D02*
X151534857Y-45809819D01*
X151534857Y-45809819D02*
X151677714Y-45857438D01*
X151677714Y-45857438D02*
X151725333Y-45905057D01*
X152677714Y-46809819D02*
X152106286Y-46809819D01*
X152392000Y-46809819D02*
X152392000Y-45809819D01*
X152392000Y-45809819D02*
X152296762Y-45952676D01*
X152296762Y-45952676D02*
X152201524Y-46047914D01*
X152201524Y-46047914D02*
X152106286Y-46095533D01*
X170037642Y-67130419D02*
X169704309Y-66654228D01*
X169466214Y-67130419D02*
X169466214Y-66130419D01*
X169466214Y-66130419D02*
X169847166Y-66130419D01*
X169847166Y-66130419D02*
X169942404Y-66178038D01*
X169942404Y-66178038D02*
X169990023Y-66225657D01*
X169990023Y-66225657D02*
X170037642Y-66320895D01*
X170037642Y-66320895D02*
X170037642Y-66463752D01*
X170037642Y-66463752D02*
X169990023Y-66558990D01*
X169990023Y-66558990D02*
X169942404Y-66606609D01*
X169942404Y-66606609D02*
X169847166Y-66654228D01*
X169847166Y-66654228D02*
X169466214Y-66654228D01*
X170990023Y-67130419D02*
X170418595Y-67130419D01*
X170704309Y-67130419D02*
X170704309Y-66130419D01*
X170704309Y-66130419D02*
X170609071Y-66273276D01*
X170609071Y-66273276D02*
X170513833Y-66368514D01*
X170513833Y-66368514D02*
X170418595Y-66416133D01*
X171323357Y-66130419D02*
X171942404Y-66130419D01*
X171942404Y-66130419D02*
X171609071Y-66511371D01*
X171609071Y-66511371D02*
X171751928Y-66511371D01*
X171751928Y-66511371D02*
X171847166Y-66558990D01*
X171847166Y-66558990D02*
X171894785Y-66606609D01*
X171894785Y-66606609D02*
X171942404Y-66701847D01*
X171942404Y-66701847D02*
X171942404Y-66939942D01*
X171942404Y-66939942D02*
X171894785Y-67035180D01*
X171894785Y-67035180D02*
X171847166Y-67082800D01*
X171847166Y-67082800D02*
X171751928Y-67130419D01*
X171751928Y-67130419D02*
X171466214Y-67130419D01*
X171466214Y-67130419D02*
X171370976Y-67082800D01*
X171370976Y-67082800D02*
X171323357Y-67035180D01*
X170983233Y-65003180D02*
X170935614Y-65050800D01*
X170935614Y-65050800D02*
X170792757Y-65098419D01*
X170792757Y-65098419D02*
X170697519Y-65098419D01*
X170697519Y-65098419D02*
X170554662Y-65050800D01*
X170554662Y-65050800D02*
X170459424Y-64955561D01*
X170459424Y-64955561D02*
X170411805Y-64860323D01*
X170411805Y-64860323D02*
X170364186Y-64669847D01*
X170364186Y-64669847D02*
X170364186Y-64526990D01*
X170364186Y-64526990D02*
X170411805Y-64336514D01*
X170411805Y-64336514D02*
X170459424Y-64241276D01*
X170459424Y-64241276D02*
X170554662Y-64146038D01*
X170554662Y-64146038D02*
X170697519Y-64098419D01*
X170697519Y-64098419D02*
X170792757Y-64098419D01*
X170792757Y-64098419D02*
X170935614Y-64146038D01*
X170935614Y-64146038D02*
X170983233Y-64193657D01*
X171554662Y-64526990D02*
X171459424Y-64479371D01*
X171459424Y-64479371D02*
X171411805Y-64431752D01*
X171411805Y-64431752D02*
X171364186Y-64336514D01*
X171364186Y-64336514D02*
X171364186Y-64288895D01*
X171364186Y-64288895D02*
X171411805Y-64193657D01*
X171411805Y-64193657D02*
X171459424Y-64146038D01*
X171459424Y-64146038D02*
X171554662Y-64098419D01*
X171554662Y-64098419D02*
X171745138Y-64098419D01*
X171745138Y-64098419D02*
X171840376Y-64146038D01*
X171840376Y-64146038D02*
X171887995Y-64193657D01*
X171887995Y-64193657D02*
X171935614Y-64288895D01*
X171935614Y-64288895D02*
X171935614Y-64336514D01*
X171935614Y-64336514D02*
X171887995Y-64431752D01*
X171887995Y-64431752D02*
X171840376Y-64479371D01*
X171840376Y-64479371D02*
X171745138Y-64526990D01*
X171745138Y-64526990D02*
X171554662Y-64526990D01*
X171554662Y-64526990D02*
X171459424Y-64574609D01*
X171459424Y-64574609D02*
X171411805Y-64622228D01*
X171411805Y-64622228D02*
X171364186Y-64717466D01*
X171364186Y-64717466D02*
X171364186Y-64907942D01*
X171364186Y-64907942D02*
X171411805Y-65003180D01*
X171411805Y-65003180D02*
X171459424Y-65050800D01*
X171459424Y-65050800D02*
X171554662Y-65098419D01*
X171554662Y-65098419D02*
X171745138Y-65098419D01*
X171745138Y-65098419D02*
X171840376Y-65050800D01*
X171840376Y-65050800D02*
X171887995Y-65003180D01*
X171887995Y-65003180D02*
X171935614Y-64907942D01*
X171935614Y-64907942D02*
X171935614Y-64717466D01*
X171935614Y-64717466D02*
X171887995Y-64622228D01*
X171887995Y-64622228D02*
X171840376Y-64574609D01*
X171840376Y-64574609D02*
X171745138Y-64526990D01*
X169961442Y-70940419D02*
X169628109Y-70464228D01*
X169390014Y-70940419D02*
X169390014Y-69940419D01*
X169390014Y-69940419D02*
X169770966Y-69940419D01*
X169770966Y-69940419D02*
X169866204Y-69988038D01*
X169866204Y-69988038D02*
X169913823Y-70035657D01*
X169913823Y-70035657D02*
X169961442Y-70130895D01*
X169961442Y-70130895D02*
X169961442Y-70273752D01*
X169961442Y-70273752D02*
X169913823Y-70368990D01*
X169913823Y-70368990D02*
X169866204Y-70416609D01*
X169866204Y-70416609D02*
X169770966Y-70464228D01*
X169770966Y-70464228D02*
X169390014Y-70464228D01*
X170913823Y-70940419D02*
X170342395Y-70940419D01*
X170628109Y-70940419D02*
X170628109Y-69940419D01*
X170628109Y-69940419D02*
X170532871Y-70083276D01*
X170532871Y-70083276D02*
X170437633Y-70178514D01*
X170437633Y-70178514D02*
X170342395Y-70226133D01*
X171818585Y-69940419D02*
X171342395Y-69940419D01*
X171342395Y-69940419D02*
X171294776Y-70416609D01*
X171294776Y-70416609D02*
X171342395Y-70368990D01*
X171342395Y-70368990D02*
X171437633Y-70321371D01*
X171437633Y-70321371D02*
X171675728Y-70321371D01*
X171675728Y-70321371D02*
X171770966Y-70368990D01*
X171770966Y-70368990D02*
X171818585Y-70416609D01*
X171818585Y-70416609D02*
X171866204Y-70511847D01*
X171866204Y-70511847D02*
X171866204Y-70749942D01*
X171866204Y-70749942D02*
X171818585Y-70845180D01*
X171818585Y-70845180D02*
X171770966Y-70892800D01*
X171770966Y-70892800D02*
X171675728Y-70940419D01*
X171675728Y-70940419D02*
X171437633Y-70940419D01*
X171437633Y-70940419D02*
X171342395Y-70892800D01*
X171342395Y-70892800D02*
X171294776Y-70845180D01*
X142257542Y-74679980D02*
X142209923Y-74727600D01*
X142209923Y-74727600D02*
X142067066Y-74775219D01*
X142067066Y-74775219D02*
X141971828Y-74775219D01*
X141971828Y-74775219D02*
X141828971Y-74727600D01*
X141828971Y-74727600D02*
X141733733Y-74632361D01*
X141733733Y-74632361D02*
X141686114Y-74537123D01*
X141686114Y-74537123D02*
X141638495Y-74346647D01*
X141638495Y-74346647D02*
X141638495Y-74203790D01*
X141638495Y-74203790D02*
X141686114Y-74013314D01*
X141686114Y-74013314D02*
X141733733Y-73918076D01*
X141733733Y-73918076D02*
X141828971Y-73822838D01*
X141828971Y-73822838D02*
X141971828Y-73775219D01*
X141971828Y-73775219D02*
X142067066Y-73775219D01*
X142067066Y-73775219D02*
X142209923Y-73822838D01*
X142209923Y-73822838D02*
X142257542Y-73870457D01*
X143209923Y-74775219D02*
X142638495Y-74775219D01*
X142924209Y-74775219D02*
X142924209Y-73775219D01*
X142924209Y-73775219D02*
X142828971Y-73918076D01*
X142828971Y-73918076D02*
X142733733Y-74013314D01*
X142733733Y-74013314D02*
X142638495Y-74060933D01*
X144162304Y-74775219D02*
X143590876Y-74775219D01*
X143876590Y-74775219D02*
X143876590Y-73775219D01*
X143876590Y-73775219D02*
X143781352Y-73918076D01*
X143781352Y-73918076D02*
X143686114Y-74013314D01*
X143686114Y-74013314D02*
X143590876Y-74060933D01*
X78944152Y-71224019D02*
X78610819Y-70747828D01*
X78372724Y-71224019D02*
X78372724Y-70224019D01*
X78372724Y-70224019D02*
X78753676Y-70224019D01*
X78753676Y-70224019D02*
X78848914Y-70271638D01*
X78848914Y-70271638D02*
X78896533Y-70319257D01*
X78896533Y-70319257D02*
X78944152Y-70414495D01*
X78944152Y-70414495D02*
X78944152Y-70557352D01*
X78944152Y-70557352D02*
X78896533Y-70652590D01*
X78896533Y-70652590D02*
X78848914Y-70700209D01*
X78848914Y-70700209D02*
X78753676Y-70747828D01*
X78753676Y-70747828D02*
X78372724Y-70747828D01*
X79372724Y-70557352D02*
X79372724Y-71557352D01*
X79372724Y-70604971D02*
X79467962Y-70557352D01*
X79467962Y-70557352D02*
X79658438Y-70557352D01*
X79658438Y-70557352D02*
X79753676Y-70604971D01*
X79753676Y-70604971D02*
X79801295Y-70652590D01*
X79801295Y-70652590D02*
X79848914Y-70747828D01*
X79848914Y-70747828D02*
X79848914Y-71033542D01*
X79848914Y-71033542D02*
X79801295Y-71128780D01*
X79801295Y-71128780D02*
X79753676Y-71176400D01*
X79753676Y-71176400D02*
X79658438Y-71224019D01*
X79658438Y-71224019D02*
X79467962Y-71224019D01*
X79467962Y-71224019D02*
X79372724Y-71176400D01*
X80801295Y-71224019D02*
X80229867Y-71224019D01*
X80515581Y-71224019D02*
X80515581Y-70224019D01*
X80515581Y-70224019D02*
X80420343Y-70366876D01*
X80420343Y-70366876D02*
X80325105Y-70462114D01*
X80325105Y-70462114D02*
X80229867Y-70509733D01*
D11*
X150824400Y-68917467D02*
X150776780Y-69060324D01*
X150776780Y-69060324D02*
X150776780Y-69298419D01*
X150776780Y-69298419D02*
X150824400Y-69393657D01*
X150824400Y-69393657D02*
X150872019Y-69441276D01*
X150872019Y-69441276D02*
X150967257Y-69488895D01*
X150967257Y-69488895D02*
X151062495Y-69488895D01*
X151062495Y-69488895D02*
X151157733Y-69441276D01*
X151157733Y-69441276D02*
X151205352Y-69393657D01*
X151205352Y-69393657D02*
X151252971Y-69298419D01*
X151252971Y-69298419D02*
X151300590Y-69107943D01*
X151300590Y-69107943D02*
X151348209Y-69012705D01*
X151348209Y-69012705D02*
X151395828Y-68965086D01*
X151395828Y-68965086D02*
X151491066Y-68917467D01*
X151491066Y-68917467D02*
X151586304Y-68917467D01*
X151586304Y-68917467D02*
X151681542Y-68965086D01*
X151681542Y-68965086D02*
X151729161Y-69012705D01*
X151729161Y-69012705D02*
X151776780Y-69107943D01*
X151776780Y-69107943D02*
X151776780Y-69346038D01*
X151776780Y-69346038D02*
X151729161Y-69488895D01*
X151776780Y-69822229D02*
X150776780Y-70060324D01*
X150776780Y-70060324D02*
X151491066Y-70250800D01*
X151491066Y-70250800D02*
X150776780Y-70441276D01*
X150776780Y-70441276D02*
X151776780Y-70679372D01*
X151776780Y-71536514D02*
X151776780Y-71060324D01*
X151776780Y-71060324D02*
X151300590Y-71012705D01*
X151300590Y-71012705D02*
X151348209Y-71060324D01*
X151348209Y-71060324D02*
X151395828Y-71155562D01*
X151395828Y-71155562D02*
X151395828Y-71393657D01*
X151395828Y-71393657D02*
X151348209Y-71488895D01*
X151348209Y-71488895D02*
X151300590Y-71536514D01*
X151300590Y-71536514D02*
X151205352Y-71584133D01*
X151205352Y-71584133D02*
X150967257Y-71584133D01*
X150967257Y-71584133D02*
X150872019Y-71536514D01*
X150872019Y-71536514D02*
X150824400Y-71488895D01*
X150824400Y-71488895D02*
X150776780Y-71393657D01*
X150776780Y-71393657D02*
X150776780Y-71155562D01*
X150776780Y-71155562D02*
X150824400Y-71060324D01*
X150824400Y-71060324D02*
X150872019Y-71012705D01*
D10*
X170613833Y-74451380D02*
X170566214Y-74499000D01*
X170566214Y-74499000D02*
X170423357Y-74546619D01*
X170423357Y-74546619D02*
X170328119Y-74546619D01*
X170328119Y-74546619D02*
X170185262Y-74499000D01*
X170185262Y-74499000D02*
X170090024Y-74403761D01*
X170090024Y-74403761D02*
X170042405Y-74308523D01*
X170042405Y-74308523D02*
X169994786Y-74118047D01*
X169994786Y-74118047D02*
X169994786Y-73975190D01*
X169994786Y-73975190D02*
X170042405Y-73784714D01*
X170042405Y-73784714D02*
X170090024Y-73689476D01*
X170090024Y-73689476D02*
X170185262Y-73594238D01*
X170185262Y-73594238D02*
X170328119Y-73546619D01*
X170328119Y-73546619D02*
X170423357Y-73546619D01*
X170423357Y-73546619D02*
X170566214Y-73594238D01*
X170566214Y-73594238D02*
X170613833Y-73641857D01*
X171090024Y-74546619D02*
X171280500Y-74546619D01*
X171280500Y-74546619D02*
X171375738Y-74499000D01*
X171375738Y-74499000D02*
X171423357Y-74451380D01*
X171423357Y-74451380D02*
X171518595Y-74308523D01*
X171518595Y-74308523D02*
X171566214Y-74118047D01*
X171566214Y-74118047D02*
X171566214Y-73737095D01*
X171566214Y-73737095D02*
X171518595Y-73641857D01*
X171518595Y-73641857D02*
X171470976Y-73594238D01*
X171470976Y-73594238D02*
X171375738Y-73546619D01*
X171375738Y-73546619D02*
X171185262Y-73546619D01*
X171185262Y-73546619D02*
X171090024Y-73594238D01*
X171090024Y-73594238D02*
X171042405Y-73641857D01*
X171042405Y-73641857D02*
X170994786Y-73737095D01*
X170994786Y-73737095D02*
X170994786Y-73975190D01*
X170994786Y-73975190D02*
X171042405Y-74070428D01*
X171042405Y-74070428D02*
X171090024Y-74118047D01*
X171090024Y-74118047D02*
X171185262Y-74165666D01*
X171185262Y-74165666D02*
X171375738Y-74165666D01*
X171375738Y-74165666D02*
X171470976Y-74118047D01*
X171470976Y-74118047D02*
X171518595Y-74070428D01*
X171518595Y-74070428D02*
X171566214Y-73975190D01*
X141774942Y-69263419D02*
X141441609Y-68787228D01*
X141203514Y-69263419D02*
X141203514Y-68263419D01*
X141203514Y-68263419D02*
X141584466Y-68263419D01*
X141584466Y-68263419D02*
X141679704Y-68311038D01*
X141679704Y-68311038D02*
X141727323Y-68358657D01*
X141727323Y-68358657D02*
X141774942Y-68453895D01*
X141774942Y-68453895D02*
X141774942Y-68596752D01*
X141774942Y-68596752D02*
X141727323Y-68691990D01*
X141727323Y-68691990D02*
X141679704Y-68739609D01*
X141679704Y-68739609D02*
X141584466Y-68787228D01*
X141584466Y-68787228D02*
X141203514Y-68787228D01*
X142727323Y-69263419D02*
X142155895Y-69263419D01*
X142441609Y-69263419D02*
X142441609Y-68263419D01*
X142441609Y-68263419D02*
X142346371Y-68406276D01*
X142346371Y-68406276D02*
X142251133Y-68501514D01*
X142251133Y-68501514D02*
X142155895Y-68549133D01*
X143203514Y-69263419D02*
X143393990Y-69263419D01*
X143393990Y-69263419D02*
X143489228Y-69215800D01*
X143489228Y-69215800D02*
X143536847Y-69168180D01*
X143536847Y-69168180D02*
X143632085Y-69025323D01*
X143632085Y-69025323D02*
X143679704Y-68834847D01*
X143679704Y-68834847D02*
X143679704Y-68453895D01*
X143679704Y-68453895D02*
X143632085Y-68358657D01*
X143632085Y-68358657D02*
X143584466Y-68311038D01*
X143584466Y-68311038D02*
X143489228Y-68263419D01*
X143489228Y-68263419D02*
X143298752Y-68263419D01*
X143298752Y-68263419D02*
X143203514Y-68311038D01*
X143203514Y-68311038D02*
X143155895Y-68358657D01*
X143155895Y-68358657D02*
X143108276Y-68453895D01*
X143108276Y-68453895D02*
X143108276Y-68691990D01*
X143108276Y-68691990D02*
X143155895Y-68787228D01*
X143155895Y-68787228D02*
X143203514Y-68834847D01*
X143203514Y-68834847D02*
X143298752Y-68882466D01*
X143298752Y-68882466D02*
X143489228Y-68882466D01*
X143489228Y-68882466D02*
X143584466Y-68834847D01*
X143584466Y-68834847D02*
X143632085Y-68787228D01*
X143632085Y-68787228D02*
X143679704Y-68691990D01*
X84339133Y-51565980D02*
X84291514Y-51613600D01*
X84291514Y-51613600D02*
X84148657Y-51661219D01*
X84148657Y-51661219D02*
X84053419Y-51661219D01*
X84053419Y-51661219D02*
X83910562Y-51613600D01*
X83910562Y-51613600D02*
X83815324Y-51518361D01*
X83815324Y-51518361D02*
X83767705Y-51423123D01*
X83767705Y-51423123D02*
X83720086Y-51232647D01*
X83720086Y-51232647D02*
X83720086Y-51089790D01*
X83720086Y-51089790D02*
X83767705Y-50899314D01*
X83767705Y-50899314D02*
X83815324Y-50804076D01*
X83815324Y-50804076D02*
X83910562Y-50708838D01*
X83910562Y-50708838D02*
X84053419Y-50661219D01*
X84053419Y-50661219D02*
X84148657Y-50661219D01*
X84148657Y-50661219D02*
X84291514Y-50708838D01*
X84291514Y-50708838D02*
X84339133Y-50756457D01*
X84672467Y-50661219D02*
X85339133Y-50661219D01*
X85339133Y-50661219D02*
X84910562Y-51661219D01*
X92289333Y-51000819D02*
X91956000Y-50524628D01*
X91717905Y-51000819D02*
X91717905Y-50000819D01*
X91717905Y-50000819D02*
X92098857Y-50000819D01*
X92098857Y-50000819D02*
X92194095Y-50048438D01*
X92194095Y-50048438D02*
X92241714Y-50096057D01*
X92241714Y-50096057D02*
X92289333Y-50191295D01*
X92289333Y-50191295D02*
X92289333Y-50334152D01*
X92289333Y-50334152D02*
X92241714Y-50429390D01*
X92241714Y-50429390D02*
X92194095Y-50477009D01*
X92194095Y-50477009D02*
X92098857Y-50524628D01*
X92098857Y-50524628D02*
X91717905Y-50524628D01*
X93146476Y-50334152D02*
X93146476Y-51000819D01*
X92908381Y-49953200D02*
X92670286Y-50667485D01*
X92670286Y-50667485D02*
X93289333Y-50667485D01*
X121847019Y-54459504D02*
X122656542Y-54459504D01*
X122656542Y-54459504D02*
X122751780Y-54411885D01*
X122751780Y-54411885D02*
X122799400Y-54364266D01*
X122799400Y-54364266D02*
X122847019Y-54269028D01*
X122847019Y-54269028D02*
X122847019Y-54078552D01*
X122847019Y-54078552D02*
X122799400Y-53983314D01*
X122799400Y-53983314D02*
X122751780Y-53935695D01*
X122751780Y-53935695D02*
X122656542Y-53888076D01*
X122656542Y-53888076D02*
X121847019Y-53888076D01*
X121942257Y-53459504D02*
X121894638Y-53411885D01*
X121894638Y-53411885D02*
X121847019Y-53316647D01*
X121847019Y-53316647D02*
X121847019Y-53078552D01*
X121847019Y-53078552D02*
X121894638Y-52983314D01*
X121894638Y-52983314D02*
X121942257Y-52935695D01*
X121942257Y-52935695D02*
X122037495Y-52888076D01*
X122037495Y-52888076D02*
X122132733Y-52888076D01*
X122132733Y-52888076D02*
X122275590Y-52935695D01*
X122275590Y-52935695D02*
X122847019Y-53507123D01*
X122847019Y-53507123D02*
X122847019Y-52888076D01*
X169936042Y-72794619D02*
X169602709Y-72318428D01*
X169364614Y-72794619D02*
X169364614Y-71794619D01*
X169364614Y-71794619D02*
X169745566Y-71794619D01*
X169745566Y-71794619D02*
X169840804Y-71842238D01*
X169840804Y-71842238D02*
X169888423Y-71889857D01*
X169888423Y-71889857D02*
X169936042Y-71985095D01*
X169936042Y-71985095D02*
X169936042Y-72127952D01*
X169936042Y-72127952D02*
X169888423Y-72223190D01*
X169888423Y-72223190D02*
X169840804Y-72270809D01*
X169840804Y-72270809D02*
X169745566Y-72318428D01*
X169745566Y-72318428D02*
X169364614Y-72318428D01*
X170888423Y-72794619D02*
X170316995Y-72794619D01*
X170602709Y-72794619D02*
X170602709Y-71794619D01*
X170602709Y-71794619D02*
X170507471Y-71937476D01*
X170507471Y-71937476D02*
X170412233Y-72032714D01*
X170412233Y-72032714D02*
X170316995Y-72080333D01*
X171745566Y-71794619D02*
X171555090Y-71794619D01*
X171555090Y-71794619D02*
X171459852Y-71842238D01*
X171459852Y-71842238D02*
X171412233Y-71889857D01*
X171412233Y-71889857D02*
X171316995Y-72032714D01*
X171316995Y-72032714D02*
X171269376Y-72223190D01*
X171269376Y-72223190D02*
X171269376Y-72604142D01*
X171269376Y-72604142D02*
X171316995Y-72699380D01*
X171316995Y-72699380D02*
X171364614Y-72747000D01*
X171364614Y-72747000D02*
X171459852Y-72794619D01*
X171459852Y-72794619D02*
X171650328Y-72794619D01*
X171650328Y-72794619D02*
X171745566Y-72747000D01*
X171745566Y-72747000D02*
X171793185Y-72699380D01*
X171793185Y-72699380D02*
X171840804Y-72604142D01*
X171840804Y-72604142D02*
X171840804Y-72366047D01*
X171840804Y-72366047D02*
X171793185Y-72270809D01*
X171793185Y-72270809D02*
X171745566Y-72223190D01*
X171745566Y-72223190D02*
X171650328Y-72175571D01*
X171650328Y-72175571D02*
X171459852Y-72175571D01*
X171459852Y-72175571D02*
X171364614Y-72223190D01*
X171364614Y-72223190D02*
X171316995Y-72270809D01*
X171316995Y-72270809D02*
X171269376Y-72366047D01*
X141749542Y-71295419D02*
X141416209Y-70819228D01*
X141178114Y-71295419D02*
X141178114Y-70295419D01*
X141178114Y-70295419D02*
X141559066Y-70295419D01*
X141559066Y-70295419D02*
X141654304Y-70343038D01*
X141654304Y-70343038D02*
X141701923Y-70390657D01*
X141701923Y-70390657D02*
X141749542Y-70485895D01*
X141749542Y-70485895D02*
X141749542Y-70628752D01*
X141749542Y-70628752D02*
X141701923Y-70723990D01*
X141701923Y-70723990D02*
X141654304Y-70771609D01*
X141654304Y-70771609D02*
X141559066Y-70819228D01*
X141559066Y-70819228D02*
X141178114Y-70819228D01*
X142130495Y-70390657D02*
X142178114Y-70343038D01*
X142178114Y-70343038D02*
X142273352Y-70295419D01*
X142273352Y-70295419D02*
X142511447Y-70295419D01*
X142511447Y-70295419D02*
X142606685Y-70343038D01*
X142606685Y-70343038D02*
X142654304Y-70390657D01*
X142654304Y-70390657D02*
X142701923Y-70485895D01*
X142701923Y-70485895D02*
X142701923Y-70581133D01*
X142701923Y-70581133D02*
X142654304Y-70723990D01*
X142654304Y-70723990D02*
X142082876Y-71295419D01*
X142082876Y-71295419D02*
X142701923Y-71295419D01*
X143320971Y-70295419D02*
X143416209Y-70295419D01*
X143416209Y-70295419D02*
X143511447Y-70343038D01*
X143511447Y-70343038D02*
X143559066Y-70390657D01*
X143559066Y-70390657D02*
X143606685Y-70485895D01*
X143606685Y-70485895D02*
X143654304Y-70676371D01*
X143654304Y-70676371D02*
X143654304Y-70914466D01*
X143654304Y-70914466D02*
X143606685Y-71104942D01*
X143606685Y-71104942D02*
X143559066Y-71200180D01*
X143559066Y-71200180D02*
X143511447Y-71247800D01*
X143511447Y-71247800D02*
X143416209Y-71295419D01*
X143416209Y-71295419D02*
X143320971Y-71295419D01*
X143320971Y-71295419D02*
X143225733Y-71247800D01*
X143225733Y-71247800D02*
X143178114Y-71200180D01*
X143178114Y-71200180D02*
X143130495Y-71104942D01*
X143130495Y-71104942D02*
X143082876Y-70914466D01*
X143082876Y-70914466D02*
X143082876Y-70676371D01*
X143082876Y-70676371D02*
X143130495Y-70485895D01*
X143130495Y-70485895D02*
X143178114Y-70390657D01*
X143178114Y-70390657D02*
X143225733Y-70343038D01*
X143225733Y-70343038D02*
X143320971Y-70295419D01*
X143433895Y-56609019D02*
X143433895Y-57418542D01*
X143433895Y-57418542D02*
X143481514Y-57513780D01*
X143481514Y-57513780D02*
X143529133Y-57561400D01*
X143529133Y-57561400D02*
X143624371Y-57609019D01*
X143624371Y-57609019D02*
X143814847Y-57609019D01*
X143814847Y-57609019D02*
X143910085Y-57561400D01*
X143910085Y-57561400D02*
X143957704Y-57513780D01*
X143957704Y-57513780D02*
X144005323Y-57418542D01*
X144005323Y-57418542D02*
X144005323Y-56609019D01*
X144386276Y-56609019D02*
X145005323Y-56609019D01*
X145005323Y-56609019D02*
X144671990Y-56989971D01*
X144671990Y-56989971D02*
X144814847Y-56989971D01*
X144814847Y-56989971D02*
X144910085Y-57037590D01*
X144910085Y-57037590D02*
X144957704Y-57085209D01*
X144957704Y-57085209D02*
X145005323Y-57180447D01*
X145005323Y-57180447D02*
X145005323Y-57418542D01*
X145005323Y-57418542D02*
X144957704Y-57513780D01*
X144957704Y-57513780D02*
X144910085Y-57561400D01*
X144910085Y-57561400D02*
X144814847Y-57609019D01*
X144814847Y-57609019D02*
X144529133Y-57609019D01*
X144529133Y-57609019D02*
X144433895Y-57561400D01*
X144433895Y-57561400D02*
X144386276Y-57513780D01*
X97280295Y-67120419D02*
X97280295Y-67929942D01*
X97280295Y-67929942D02*
X97327914Y-68025180D01*
X97327914Y-68025180D02*
X97375533Y-68072800D01*
X97375533Y-68072800D02*
X97470771Y-68120419D01*
X97470771Y-68120419D02*
X97661247Y-68120419D01*
X97661247Y-68120419D02*
X97756485Y-68072800D01*
X97756485Y-68072800D02*
X97804104Y-68025180D01*
X97804104Y-68025180D02*
X97851723Y-67929942D01*
X97851723Y-67929942D02*
X97851723Y-67120419D01*
X98804104Y-67120419D02*
X98327914Y-67120419D01*
X98327914Y-67120419D02*
X98280295Y-67596609D01*
X98280295Y-67596609D02*
X98327914Y-67548990D01*
X98327914Y-67548990D02*
X98423152Y-67501371D01*
X98423152Y-67501371D02*
X98661247Y-67501371D01*
X98661247Y-67501371D02*
X98756485Y-67548990D01*
X98756485Y-67548990D02*
X98804104Y-67596609D01*
X98804104Y-67596609D02*
X98851723Y-67691847D01*
X98851723Y-67691847D02*
X98851723Y-67929942D01*
X98851723Y-67929942D02*
X98804104Y-68025180D01*
X98804104Y-68025180D02*
X98756485Y-68072800D01*
X98756485Y-68072800D02*
X98661247Y-68120419D01*
X98661247Y-68120419D02*
X98423152Y-68120419D01*
X98423152Y-68120419D02*
X98327914Y-68072800D01*
X98327914Y-68072800D02*
X98280295Y-68025180D01*
X123949619Y-45505666D02*
X123473428Y-45838999D01*
X123949619Y-46077094D02*
X122949619Y-46077094D01*
X122949619Y-46077094D02*
X122949619Y-45696142D01*
X122949619Y-45696142D02*
X122997238Y-45600904D01*
X122997238Y-45600904D02*
X123044857Y-45553285D01*
X123044857Y-45553285D02*
X123140095Y-45505666D01*
X123140095Y-45505666D02*
X123282952Y-45505666D01*
X123282952Y-45505666D02*
X123378190Y-45553285D01*
X123378190Y-45553285D02*
X123425809Y-45600904D01*
X123425809Y-45600904D02*
X123473428Y-45696142D01*
X123473428Y-45696142D02*
X123473428Y-46077094D01*
X123044857Y-45124713D02*
X122997238Y-45077094D01*
X122997238Y-45077094D02*
X122949619Y-44981856D01*
X122949619Y-44981856D02*
X122949619Y-44743761D01*
X122949619Y-44743761D02*
X122997238Y-44648523D01*
X122997238Y-44648523D02*
X123044857Y-44600904D01*
X123044857Y-44600904D02*
X123140095Y-44553285D01*
X123140095Y-44553285D02*
X123235333Y-44553285D01*
X123235333Y-44553285D02*
X123378190Y-44600904D01*
X123378190Y-44600904D02*
X123949619Y-45172332D01*
X123949619Y-45172332D02*
X123949619Y-44553285D01*
X129129066Y-66733009D02*
X129271923Y-66780628D01*
X129271923Y-66780628D02*
X129319542Y-66828247D01*
X129319542Y-66828247D02*
X129367161Y-66923485D01*
X129367161Y-66923485D02*
X129367161Y-67066342D01*
X129367161Y-67066342D02*
X129319542Y-67161580D01*
X129319542Y-67161580D02*
X129271923Y-67209200D01*
X129271923Y-67209200D02*
X129176685Y-67256819D01*
X129176685Y-67256819D02*
X128795733Y-67256819D01*
X128795733Y-67256819D02*
X128795733Y-66256819D01*
X128795733Y-66256819D02*
X129129066Y-66256819D01*
X129129066Y-66256819D02*
X129224304Y-66304438D01*
X129224304Y-66304438D02*
X129271923Y-66352057D01*
X129271923Y-66352057D02*
X129319542Y-66447295D01*
X129319542Y-66447295D02*
X129319542Y-66542533D01*
X129319542Y-66542533D02*
X129271923Y-66637771D01*
X129271923Y-66637771D02*
X129224304Y-66685390D01*
X129224304Y-66685390D02*
X129129066Y-66733009D01*
X129129066Y-66733009D02*
X128795733Y-66733009D01*
X129986209Y-66256819D02*
X130176685Y-66256819D01*
X130176685Y-66256819D02*
X130271923Y-66304438D01*
X130271923Y-66304438D02*
X130367161Y-66399676D01*
X130367161Y-66399676D02*
X130414780Y-66590152D01*
X130414780Y-66590152D02*
X130414780Y-66923485D01*
X130414780Y-66923485D02*
X130367161Y-67113961D01*
X130367161Y-67113961D02*
X130271923Y-67209200D01*
X130271923Y-67209200D02*
X130176685Y-67256819D01*
X130176685Y-67256819D02*
X129986209Y-67256819D01*
X129986209Y-67256819D02*
X129890971Y-67209200D01*
X129890971Y-67209200D02*
X129795733Y-67113961D01*
X129795733Y-67113961D02*
X129748114Y-66923485D01*
X129748114Y-66923485D02*
X129748114Y-66590152D01*
X129748114Y-66590152D02*
X129795733Y-66399676D01*
X129795733Y-66399676D02*
X129890971Y-66304438D01*
X129890971Y-66304438D02*
X129986209Y-66256819D01*
X131033828Y-66256819D02*
X131224304Y-66256819D01*
X131224304Y-66256819D02*
X131319542Y-66304438D01*
X131319542Y-66304438D02*
X131414780Y-66399676D01*
X131414780Y-66399676D02*
X131462399Y-66590152D01*
X131462399Y-66590152D02*
X131462399Y-66923485D01*
X131462399Y-66923485D02*
X131414780Y-67113961D01*
X131414780Y-67113961D02*
X131319542Y-67209200D01*
X131319542Y-67209200D02*
X131224304Y-67256819D01*
X131224304Y-67256819D02*
X131033828Y-67256819D01*
X131033828Y-67256819D02*
X130938590Y-67209200D01*
X130938590Y-67209200D02*
X130843352Y-67113961D01*
X130843352Y-67113961D02*
X130795733Y-66923485D01*
X130795733Y-66923485D02*
X130795733Y-66590152D01*
X130795733Y-66590152D02*
X130843352Y-66399676D01*
X130843352Y-66399676D02*
X130938590Y-66304438D01*
X130938590Y-66304438D02*
X131033828Y-66256819D01*
X131748114Y-66256819D02*
X132319542Y-66256819D01*
X132033828Y-67256819D02*
X132033828Y-66256819D01*
X133176685Y-67256819D02*
X132605257Y-67256819D01*
X132890971Y-67256819D02*
X132890971Y-66256819D01*
X132890971Y-66256819D02*
X132795733Y-66399676D01*
X132795733Y-66399676D02*
X132700495Y-66494914D01*
X132700495Y-66494914D02*
X132605257Y-66542533D01*
X153090142Y-55953819D02*
X152756809Y-55477628D01*
X152518714Y-55953819D02*
X152518714Y-54953819D01*
X152518714Y-54953819D02*
X152899666Y-54953819D01*
X152899666Y-54953819D02*
X152994904Y-55001438D01*
X152994904Y-55001438D02*
X153042523Y-55049057D01*
X153042523Y-55049057D02*
X153090142Y-55144295D01*
X153090142Y-55144295D02*
X153090142Y-55287152D01*
X153090142Y-55287152D02*
X153042523Y-55382390D01*
X153042523Y-55382390D02*
X152994904Y-55430009D01*
X152994904Y-55430009D02*
X152899666Y-55477628D01*
X152899666Y-55477628D02*
X152518714Y-55477628D01*
X153471095Y-55049057D02*
X153518714Y-55001438D01*
X153518714Y-55001438D02*
X153613952Y-54953819D01*
X153613952Y-54953819D02*
X153852047Y-54953819D01*
X153852047Y-54953819D02*
X153947285Y-55001438D01*
X153947285Y-55001438D02*
X153994904Y-55049057D01*
X153994904Y-55049057D02*
X154042523Y-55144295D01*
X154042523Y-55144295D02*
X154042523Y-55239533D01*
X154042523Y-55239533D02*
X153994904Y-55382390D01*
X153994904Y-55382390D02*
X153423476Y-55953819D01*
X153423476Y-55953819D02*
X154042523Y-55953819D01*
X154947285Y-54953819D02*
X154471095Y-54953819D01*
X154471095Y-54953819D02*
X154423476Y-55430009D01*
X154423476Y-55430009D02*
X154471095Y-55382390D01*
X154471095Y-55382390D02*
X154566333Y-55334771D01*
X154566333Y-55334771D02*
X154804428Y-55334771D01*
X154804428Y-55334771D02*
X154899666Y-55382390D01*
X154899666Y-55382390D02*
X154947285Y-55430009D01*
X154947285Y-55430009D02*
X154994904Y-55525247D01*
X154994904Y-55525247D02*
X154994904Y-55763342D01*
X154994904Y-55763342D02*
X154947285Y-55858580D01*
X154947285Y-55858580D02*
X154899666Y-55906200D01*
X154899666Y-55906200D02*
X154804428Y-55953819D01*
X154804428Y-55953819D02*
X154566333Y-55953819D01*
X154566333Y-55953819D02*
X154471095Y-55906200D01*
X154471095Y-55906200D02*
X154423476Y-55858580D01*
X125905419Y-45327866D02*
X125429228Y-45661199D01*
X125905419Y-45899294D02*
X124905419Y-45899294D01*
X124905419Y-45899294D02*
X124905419Y-45518342D01*
X124905419Y-45518342D02*
X124953038Y-45423104D01*
X124953038Y-45423104D02*
X125000657Y-45375485D01*
X125000657Y-45375485D02*
X125095895Y-45327866D01*
X125095895Y-45327866D02*
X125238752Y-45327866D01*
X125238752Y-45327866D02*
X125333990Y-45375485D01*
X125333990Y-45375485D02*
X125381609Y-45423104D01*
X125381609Y-45423104D02*
X125429228Y-45518342D01*
X125429228Y-45518342D02*
X125429228Y-45899294D01*
X125905419Y-44375485D02*
X125905419Y-44946913D01*
X125905419Y-44661199D02*
X124905419Y-44661199D01*
X124905419Y-44661199D02*
X125048276Y-44756437D01*
X125048276Y-44756437D02*
X125143514Y-44851675D01*
X125143514Y-44851675D02*
X125191133Y-44946913D01*
X141788342Y-67307619D02*
X141455009Y-66831428D01*
X141216914Y-67307619D02*
X141216914Y-66307619D01*
X141216914Y-66307619D02*
X141597866Y-66307619D01*
X141597866Y-66307619D02*
X141693104Y-66355238D01*
X141693104Y-66355238D02*
X141740723Y-66402857D01*
X141740723Y-66402857D02*
X141788342Y-66498095D01*
X141788342Y-66498095D02*
X141788342Y-66640952D01*
X141788342Y-66640952D02*
X141740723Y-66736190D01*
X141740723Y-66736190D02*
X141693104Y-66783809D01*
X141693104Y-66783809D02*
X141597866Y-66831428D01*
X141597866Y-66831428D02*
X141216914Y-66831428D01*
X142740723Y-67307619D02*
X142169295Y-67307619D01*
X142455009Y-67307619D02*
X142455009Y-66307619D01*
X142455009Y-66307619D02*
X142359771Y-66450476D01*
X142359771Y-66450476D02*
X142264533Y-66545714D01*
X142264533Y-66545714D02*
X142169295Y-66593333D01*
X143312152Y-66736190D02*
X143216914Y-66688571D01*
X143216914Y-66688571D02*
X143169295Y-66640952D01*
X143169295Y-66640952D02*
X143121676Y-66545714D01*
X143121676Y-66545714D02*
X143121676Y-66498095D01*
X143121676Y-66498095D02*
X143169295Y-66402857D01*
X143169295Y-66402857D02*
X143216914Y-66355238D01*
X143216914Y-66355238D02*
X143312152Y-66307619D01*
X143312152Y-66307619D02*
X143502628Y-66307619D01*
X143502628Y-66307619D02*
X143597866Y-66355238D01*
X143597866Y-66355238D02*
X143645485Y-66402857D01*
X143645485Y-66402857D02*
X143693104Y-66498095D01*
X143693104Y-66498095D02*
X143693104Y-66545714D01*
X143693104Y-66545714D02*
X143645485Y-66640952D01*
X143645485Y-66640952D02*
X143597866Y-66688571D01*
X143597866Y-66688571D02*
X143502628Y-66736190D01*
X143502628Y-66736190D02*
X143312152Y-66736190D01*
X143312152Y-66736190D02*
X143216914Y-66783809D01*
X143216914Y-66783809D02*
X143169295Y-66831428D01*
X143169295Y-66831428D02*
X143121676Y-66926666D01*
X143121676Y-66926666D02*
X143121676Y-67117142D01*
X143121676Y-67117142D02*
X143169295Y-67212380D01*
X143169295Y-67212380D02*
X143216914Y-67260000D01*
X143216914Y-67260000D02*
X143312152Y-67307619D01*
X143312152Y-67307619D02*
X143502628Y-67307619D01*
X143502628Y-67307619D02*
X143597866Y-67260000D01*
X143597866Y-67260000D02*
X143645485Y-67212380D01*
X143645485Y-67212380D02*
X143693104Y-67117142D01*
X143693104Y-67117142D02*
X143693104Y-66926666D01*
X143693104Y-66926666D02*
X143645485Y-66831428D01*
X143645485Y-66831428D02*
X143597866Y-66783809D01*
X143597866Y-66783809D02*
X143502628Y-66736190D01*
X142003542Y-65231180D02*
X141955923Y-65278800D01*
X141955923Y-65278800D02*
X141813066Y-65326419D01*
X141813066Y-65326419D02*
X141717828Y-65326419D01*
X141717828Y-65326419D02*
X141574971Y-65278800D01*
X141574971Y-65278800D02*
X141479733Y-65183561D01*
X141479733Y-65183561D02*
X141432114Y-65088323D01*
X141432114Y-65088323D02*
X141384495Y-64897847D01*
X141384495Y-64897847D02*
X141384495Y-64754990D01*
X141384495Y-64754990D02*
X141432114Y-64564514D01*
X141432114Y-64564514D02*
X141479733Y-64469276D01*
X141479733Y-64469276D02*
X141574971Y-64374038D01*
X141574971Y-64374038D02*
X141717828Y-64326419D01*
X141717828Y-64326419D02*
X141813066Y-64326419D01*
X141813066Y-64326419D02*
X141955923Y-64374038D01*
X141955923Y-64374038D02*
X142003542Y-64421657D01*
X142955923Y-65326419D02*
X142384495Y-65326419D01*
X142670209Y-65326419D02*
X142670209Y-64326419D01*
X142670209Y-64326419D02*
X142574971Y-64469276D01*
X142574971Y-64469276D02*
X142479733Y-64564514D01*
X142479733Y-64564514D02*
X142384495Y-64612133D01*
X143574971Y-64326419D02*
X143670209Y-64326419D01*
X143670209Y-64326419D02*
X143765447Y-64374038D01*
X143765447Y-64374038D02*
X143813066Y-64421657D01*
X143813066Y-64421657D02*
X143860685Y-64516895D01*
X143860685Y-64516895D02*
X143908304Y-64707371D01*
X143908304Y-64707371D02*
X143908304Y-64945466D01*
X143908304Y-64945466D02*
X143860685Y-65135942D01*
X143860685Y-65135942D02*
X143813066Y-65231180D01*
X143813066Y-65231180D02*
X143765447Y-65278800D01*
X143765447Y-65278800D02*
X143670209Y-65326419D01*
X143670209Y-65326419D02*
X143574971Y-65326419D01*
X143574971Y-65326419D02*
X143479733Y-65278800D01*
X143479733Y-65278800D02*
X143432114Y-65231180D01*
X143432114Y-65231180D02*
X143384495Y-65135942D01*
X143384495Y-65135942D02*
X143336876Y-64945466D01*
X143336876Y-64945466D02*
X143336876Y-64707371D01*
X143336876Y-64707371D02*
X143384495Y-64516895D01*
X143384495Y-64516895D02*
X143432114Y-64421657D01*
X143432114Y-64421657D02*
X143479733Y-64374038D01*
X143479733Y-64374038D02*
X143574971Y-64326419D01*
X141852142Y-77645419D02*
X141518809Y-77169228D01*
X141280714Y-77645419D02*
X141280714Y-76645419D01*
X141280714Y-76645419D02*
X141661666Y-76645419D01*
X141661666Y-76645419D02*
X141756904Y-76693038D01*
X141756904Y-76693038D02*
X141804523Y-76740657D01*
X141804523Y-76740657D02*
X141852142Y-76835895D01*
X141852142Y-76835895D02*
X141852142Y-76978752D01*
X141852142Y-76978752D02*
X141804523Y-77073990D01*
X141804523Y-77073990D02*
X141756904Y-77121609D01*
X141756904Y-77121609D02*
X141661666Y-77169228D01*
X141661666Y-77169228D02*
X141280714Y-77169228D01*
X142233095Y-76740657D02*
X142280714Y-76693038D01*
X142280714Y-76693038D02*
X142375952Y-76645419D01*
X142375952Y-76645419D02*
X142614047Y-76645419D01*
X142614047Y-76645419D02*
X142709285Y-76693038D01*
X142709285Y-76693038D02*
X142756904Y-76740657D01*
X142756904Y-76740657D02*
X142804523Y-76835895D01*
X142804523Y-76835895D02*
X142804523Y-76931133D01*
X142804523Y-76931133D02*
X142756904Y-77073990D01*
X142756904Y-77073990D02*
X142185476Y-77645419D01*
X142185476Y-77645419D02*
X142804523Y-77645419D01*
X143185476Y-76740657D02*
X143233095Y-76693038D01*
X143233095Y-76693038D02*
X143328333Y-76645419D01*
X143328333Y-76645419D02*
X143566428Y-76645419D01*
X143566428Y-76645419D02*
X143661666Y-76693038D01*
X143661666Y-76693038D02*
X143709285Y-76740657D01*
X143709285Y-76740657D02*
X143756904Y-76835895D01*
X143756904Y-76835895D02*
X143756904Y-76931133D01*
X143756904Y-76931133D02*
X143709285Y-77073990D01*
X143709285Y-77073990D02*
X143137857Y-77645419D01*
X143137857Y-77645419D02*
X143756904Y-77645419D01*
X82928619Y-57783171D02*
X82452428Y-58116504D01*
X82928619Y-58354599D02*
X81928619Y-58354599D01*
X81928619Y-58354599D02*
X81928619Y-57973647D01*
X81928619Y-57973647D02*
X81976238Y-57878409D01*
X81976238Y-57878409D02*
X82023857Y-57830790D01*
X82023857Y-57830790D02*
X82119095Y-57783171D01*
X82119095Y-57783171D02*
X82261952Y-57783171D01*
X82261952Y-57783171D02*
X82357190Y-57830790D01*
X82357190Y-57830790D02*
X82404809Y-57878409D01*
X82404809Y-57878409D02*
X82452428Y-57973647D01*
X82452428Y-57973647D02*
X82452428Y-58354599D01*
X82404809Y-57354599D02*
X82404809Y-57021266D01*
X82928619Y-56878409D02*
X82928619Y-57354599D01*
X82928619Y-57354599D02*
X81928619Y-57354599D01*
X81928619Y-57354599D02*
X81928619Y-56878409D01*
X82881000Y-56497456D02*
X82928619Y-56354599D01*
X82928619Y-56354599D02*
X82928619Y-56116504D01*
X82928619Y-56116504D02*
X82881000Y-56021266D01*
X82881000Y-56021266D02*
X82833380Y-55973647D01*
X82833380Y-55973647D02*
X82738142Y-55926028D01*
X82738142Y-55926028D02*
X82642904Y-55926028D01*
X82642904Y-55926028D02*
X82547666Y-55973647D01*
X82547666Y-55973647D02*
X82500047Y-56021266D01*
X82500047Y-56021266D02*
X82452428Y-56116504D01*
X82452428Y-56116504D02*
X82404809Y-56306980D01*
X82404809Y-56306980D02*
X82357190Y-56402218D01*
X82357190Y-56402218D02*
X82309571Y-56449837D01*
X82309571Y-56449837D02*
X82214333Y-56497456D01*
X82214333Y-56497456D02*
X82119095Y-56497456D01*
X82119095Y-56497456D02*
X82023857Y-56449837D01*
X82023857Y-56449837D02*
X81976238Y-56402218D01*
X81976238Y-56402218D02*
X81928619Y-56306980D01*
X81928619Y-56306980D02*
X81928619Y-56068885D01*
X81928619Y-56068885D02*
X81976238Y-55926028D01*
X82404809Y-55497456D02*
X82404809Y-55164123D01*
X82928619Y-55021266D02*
X82928619Y-55497456D01*
X82928619Y-55497456D02*
X81928619Y-55497456D01*
X81928619Y-55497456D02*
X81928619Y-55021266D01*
X81928619Y-54735551D02*
X81928619Y-54164123D01*
X82928619Y-54449837D02*
X81928619Y-54449837D01*
X82928619Y-53306980D02*
X82928619Y-53878408D01*
X82928619Y-53592694D02*
X81928619Y-53592694D01*
X81928619Y-53592694D02*
X82071476Y-53687932D01*
X82071476Y-53687932D02*
X82166714Y-53783170D01*
X82166714Y-53783170D02*
X82214333Y-53878408D01*
X102206211Y-56619019D02*
X102206211Y-57428542D01*
X102206211Y-57428542D02*
X102253830Y-57523780D01*
X102253830Y-57523780D02*
X102301449Y-57571400D01*
X102301449Y-57571400D02*
X102396687Y-57619019D01*
X102396687Y-57619019D02*
X102587163Y-57619019D01*
X102587163Y-57619019D02*
X102682401Y-57571400D01*
X102682401Y-57571400D02*
X102730020Y-57523780D01*
X102730020Y-57523780D02*
X102777639Y-57428542D01*
X102777639Y-57428542D02*
X102777639Y-56619019D01*
X103777639Y-57619019D02*
X103206211Y-57619019D01*
X103491925Y-57619019D02*
X103491925Y-56619019D01*
X103491925Y-56619019D02*
X103396687Y-56761876D01*
X103396687Y-56761876D02*
X103301449Y-56857114D01*
X103301449Y-56857114D02*
X103206211Y-56904733D01*
X127715180Y-45505666D02*
X127762800Y-45553285D01*
X127762800Y-45553285D02*
X127810419Y-45696142D01*
X127810419Y-45696142D02*
X127810419Y-45791380D01*
X127810419Y-45791380D02*
X127762800Y-45934237D01*
X127762800Y-45934237D02*
X127667561Y-46029475D01*
X127667561Y-46029475D02*
X127572323Y-46077094D01*
X127572323Y-46077094D02*
X127381847Y-46124713D01*
X127381847Y-46124713D02*
X127238990Y-46124713D01*
X127238990Y-46124713D02*
X127048514Y-46077094D01*
X127048514Y-46077094D02*
X126953276Y-46029475D01*
X126953276Y-46029475D02*
X126858038Y-45934237D01*
X126858038Y-45934237D02*
X126810419Y-45791380D01*
X126810419Y-45791380D02*
X126810419Y-45696142D01*
X126810419Y-45696142D02*
X126858038Y-45553285D01*
X126858038Y-45553285D02*
X126905657Y-45505666D01*
X127143752Y-44648523D02*
X127810419Y-44648523D01*
X126762800Y-44886618D02*
X127477085Y-45124713D01*
X127477085Y-45124713D02*
X127477085Y-44505666D01*
D11*
X178848700Y-69069867D02*
X178801080Y-69212724D01*
X178801080Y-69212724D02*
X178801080Y-69450819D01*
X178801080Y-69450819D02*
X178848700Y-69546057D01*
X178848700Y-69546057D02*
X178896319Y-69593676D01*
X178896319Y-69593676D02*
X178991557Y-69641295D01*
X178991557Y-69641295D02*
X179086795Y-69641295D01*
X179086795Y-69641295D02*
X179182033Y-69593676D01*
X179182033Y-69593676D02*
X179229652Y-69546057D01*
X179229652Y-69546057D02*
X179277271Y-69450819D01*
X179277271Y-69450819D02*
X179324890Y-69260343D01*
X179324890Y-69260343D02*
X179372509Y-69165105D01*
X179372509Y-69165105D02*
X179420128Y-69117486D01*
X179420128Y-69117486D02*
X179515366Y-69069867D01*
X179515366Y-69069867D02*
X179610604Y-69069867D01*
X179610604Y-69069867D02*
X179705842Y-69117486D01*
X179705842Y-69117486D02*
X179753461Y-69165105D01*
X179753461Y-69165105D02*
X179801080Y-69260343D01*
X179801080Y-69260343D02*
X179801080Y-69498438D01*
X179801080Y-69498438D02*
X179753461Y-69641295D01*
X179801080Y-69974629D02*
X178801080Y-70212724D01*
X178801080Y-70212724D02*
X179515366Y-70403200D01*
X179515366Y-70403200D02*
X178801080Y-70593676D01*
X178801080Y-70593676D02*
X179801080Y-70831772D01*
X178801080Y-71736533D02*
X178801080Y-71165105D01*
X178801080Y-71450819D02*
X179801080Y-71450819D01*
X179801080Y-71450819D02*
X179658223Y-71355581D01*
X179658223Y-71355581D02*
X179562985Y-71260343D01*
X179562985Y-71260343D02*
X179515366Y-71165105D01*
D10*
X74490342Y-87881619D02*
X74157009Y-87405428D01*
X73918914Y-87881619D02*
X73918914Y-86881619D01*
X73918914Y-86881619D02*
X74299866Y-86881619D01*
X74299866Y-86881619D02*
X74395104Y-86929238D01*
X74395104Y-86929238D02*
X74442723Y-86976857D01*
X74442723Y-86976857D02*
X74490342Y-87072095D01*
X74490342Y-87072095D02*
X74490342Y-87214952D01*
X74490342Y-87214952D02*
X74442723Y-87310190D01*
X74442723Y-87310190D02*
X74395104Y-87357809D01*
X74395104Y-87357809D02*
X74299866Y-87405428D01*
X74299866Y-87405428D02*
X73918914Y-87405428D01*
X74871295Y-86976857D02*
X74918914Y-86929238D01*
X74918914Y-86929238D02*
X75014152Y-86881619D01*
X75014152Y-86881619D02*
X75252247Y-86881619D01*
X75252247Y-86881619D02*
X75347485Y-86929238D01*
X75347485Y-86929238D02*
X75395104Y-86976857D01*
X75395104Y-86976857D02*
X75442723Y-87072095D01*
X75442723Y-87072095D02*
X75442723Y-87167333D01*
X75442723Y-87167333D02*
X75395104Y-87310190D01*
X75395104Y-87310190D02*
X74823676Y-87881619D01*
X74823676Y-87881619D02*
X75442723Y-87881619D01*
X75776057Y-86881619D02*
X76395104Y-86881619D01*
X76395104Y-86881619D02*
X76061771Y-87262571D01*
X76061771Y-87262571D02*
X76204628Y-87262571D01*
X76204628Y-87262571D02*
X76299866Y-87310190D01*
X76299866Y-87310190D02*
X76347485Y-87357809D01*
X76347485Y-87357809D02*
X76395104Y-87453047D01*
X76395104Y-87453047D02*
X76395104Y-87691142D01*
X76395104Y-87691142D02*
X76347485Y-87786380D01*
X76347485Y-87786380D02*
X76299866Y-87834000D01*
X76299866Y-87834000D02*
X76204628Y-87881619D01*
X76204628Y-87881619D02*
X75918914Y-87881619D01*
X75918914Y-87881619D02*
X75823676Y-87834000D01*
X75823676Y-87834000D02*
X75776057Y-87786380D01*
X135593066Y-44032019D02*
X135593066Y-44746304D01*
X135593066Y-44746304D02*
X135545447Y-44889161D01*
X135545447Y-44889161D02*
X135450209Y-44984400D01*
X135450209Y-44984400D02*
X135307352Y-45032019D01*
X135307352Y-45032019D02*
X135212114Y-45032019D01*
X136593066Y-45032019D02*
X136021638Y-45032019D01*
X136307352Y-45032019D02*
X136307352Y-44032019D01*
X136307352Y-44032019D02*
X136212114Y-44174876D01*
X136212114Y-44174876D02*
X136116876Y-44270114D01*
X136116876Y-44270114D02*
X136021638Y-44317733D01*
X89622333Y-47730580D02*
X89574714Y-47778200D01*
X89574714Y-47778200D02*
X89431857Y-47825819D01*
X89431857Y-47825819D02*
X89336619Y-47825819D01*
X89336619Y-47825819D02*
X89193762Y-47778200D01*
X89193762Y-47778200D02*
X89098524Y-47682961D01*
X89098524Y-47682961D02*
X89050905Y-47587723D01*
X89050905Y-47587723D02*
X89003286Y-47397247D01*
X89003286Y-47397247D02*
X89003286Y-47254390D01*
X89003286Y-47254390D02*
X89050905Y-47063914D01*
X89050905Y-47063914D02*
X89098524Y-46968676D01*
X89098524Y-46968676D02*
X89193762Y-46873438D01*
X89193762Y-46873438D02*
X89336619Y-46825819D01*
X89336619Y-46825819D02*
X89431857Y-46825819D01*
X89431857Y-46825819D02*
X89574714Y-46873438D01*
X89574714Y-46873438D02*
X89622333Y-46921057D01*
X90479476Y-46825819D02*
X90289000Y-46825819D01*
X90289000Y-46825819D02*
X90193762Y-46873438D01*
X90193762Y-46873438D02*
X90146143Y-46921057D01*
X90146143Y-46921057D02*
X90050905Y-47063914D01*
X90050905Y-47063914D02*
X90003286Y-47254390D01*
X90003286Y-47254390D02*
X90003286Y-47635342D01*
X90003286Y-47635342D02*
X90050905Y-47730580D01*
X90050905Y-47730580D02*
X90098524Y-47778200D01*
X90098524Y-47778200D02*
X90193762Y-47825819D01*
X90193762Y-47825819D02*
X90384238Y-47825819D01*
X90384238Y-47825819D02*
X90479476Y-47778200D01*
X90479476Y-47778200D02*
X90527095Y-47730580D01*
X90527095Y-47730580D02*
X90574714Y-47635342D01*
X90574714Y-47635342D02*
X90574714Y-47397247D01*
X90574714Y-47397247D02*
X90527095Y-47302009D01*
X90527095Y-47302009D02*
X90479476Y-47254390D01*
X90479476Y-47254390D02*
X90384238Y-47206771D01*
X90384238Y-47206771D02*
X90193762Y-47206771D01*
X90193762Y-47206771D02*
X90098524Y-47254390D01*
X90098524Y-47254390D02*
X90050905Y-47302009D01*
X90050905Y-47302009D02*
X90003286Y-47397247D01*
X170000042Y-77772419D02*
X169666709Y-77296228D01*
X169428614Y-77772419D02*
X169428614Y-76772419D01*
X169428614Y-76772419D02*
X169809566Y-76772419D01*
X169809566Y-76772419D02*
X169904804Y-76820038D01*
X169904804Y-76820038D02*
X169952423Y-76867657D01*
X169952423Y-76867657D02*
X170000042Y-76962895D01*
X170000042Y-76962895D02*
X170000042Y-77105752D01*
X170000042Y-77105752D02*
X169952423Y-77200990D01*
X169952423Y-77200990D02*
X169904804Y-77248609D01*
X169904804Y-77248609D02*
X169809566Y-77296228D01*
X169809566Y-77296228D02*
X169428614Y-77296228D01*
X170952423Y-77772419D02*
X170380995Y-77772419D01*
X170666709Y-77772419D02*
X170666709Y-76772419D01*
X170666709Y-76772419D02*
X170571471Y-76915276D01*
X170571471Y-76915276D02*
X170476233Y-77010514D01*
X170476233Y-77010514D02*
X170380995Y-77058133D01*
X171285757Y-76772419D02*
X171952423Y-76772419D01*
X171952423Y-76772419D02*
X171523852Y-77772419D01*
X154747933Y-53928180D02*
X154700314Y-53975800D01*
X154700314Y-53975800D02*
X154557457Y-54023419D01*
X154557457Y-54023419D02*
X154462219Y-54023419D01*
X154462219Y-54023419D02*
X154319362Y-53975800D01*
X154319362Y-53975800D02*
X154224124Y-53880561D01*
X154224124Y-53880561D02*
X154176505Y-53785323D01*
X154176505Y-53785323D02*
X154128886Y-53594847D01*
X154128886Y-53594847D02*
X154128886Y-53451990D01*
X154128886Y-53451990D02*
X154176505Y-53261514D01*
X154176505Y-53261514D02*
X154224124Y-53166276D01*
X154224124Y-53166276D02*
X154319362Y-53071038D01*
X154319362Y-53071038D02*
X154462219Y-53023419D01*
X154462219Y-53023419D02*
X154557457Y-53023419D01*
X154557457Y-53023419D02*
X154700314Y-53071038D01*
X154700314Y-53071038D02*
X154747933Y-53118657D01*
X155128886Y-53118657D02*
X155176505Y-53071038D01*
X155176505Y-53071038D02*
X155271743Y-53023419D01*
X155271743Y-53023419D02*
X155509838Y-53023419D01*
X155509838Y-53023419D02*
X155605076Y-53071038D01*
X155605076Y-53071038D02*
X155652695Y-53118657D01*
X155652695Y-53118657D02*
X155700314Y-53213895D01*
X155700314Y-53213895D02*
X155700314Y-53309133D01*
X155700314Y-53309133D02*
X155652695Y-53451990D01*
X155652695Y-53451990D02*
X155081267Y-54023419D01*
X155081267Y-54023419D02*
X155700314Y-54023419D01*
X119036633Y-67173019D02*
X118703300Y-66696828D01*
X118465205Y-67173019D02*
X118465205Y-66173019D01*
X118465205Y-66173019D02*
X118846157Y-66173019D01*
X118846157Y-66173019D02*
X118941395Y-66220638D01*
X118941395Y-66220638D02*
X118989014Y-66268257D01*
X118989014Y-66268257D02*
X119036633Y-66363495D01*
X119036633Y-66363495D02*
X119036633Y-66506352D01*
X119036633Y-66506352D02*
X118989014Y-66601590D01*
X118989014Y-66601590D02*
X118941395Y-66649209D01*
X118941395Y-66649209D02*
X118846157Y-66696828D01*
X118846157Y-66696828D02*
X118465205Y-66696828D01*
X119512824Y-67173019D02*
X119703300Y-67173019D01*
X119703300Y-67173019D02*
X119798538Y-67125400D01*
X119798538Y-67125400D02*
X119846157Y-67077780D01*
X119846157Y-67077780D02*
X119941395Y-66934923D01*
X119941395Y-66934923D02*
X119989014Y-66744447D01*
X119989014Y-66744447D02*
X119989014Y-66363495D01*
X119989014Y-66363495D02*
X119941395Y-66268257D01*
X119941395Y-66268257D02*
X119893776Y-66220638D01*
X119893776Y-66220638D02*
X119798538Y-66173019D01*
X119798538Y-66173019D02*
X119608062Y-66173019D01*
X119608062Y-66173019D02*
X119512824Y-66220638D01*
X119512824Y-66220638D02*
X119465205Y-66268257D01*
X119465205Y-66268257D02*
X119417586Y-66363495D01*
X119417586Y-66363495D02*
X119417586Y-66601590D01*
X119417586Y-66601590D02*
X119465205Y-66696828D01*
X119465205Y-66696828D02*
X119512824Y-66744447D01*
X119512824Y-66744447D02*
X119608062Y-66792066D01*
X119608062Y-66792066D02*
X119798538Y-66792066D01*
X119798538Y-66792066D02*
X119893776Y-66744447D01*
X119893776Y-66744447D02*
X119941395Y-66696828D01*
X119941395Y-66696828D02*
X119989014Y-66601590D01*
X151503142Y-48365580D02*
X151455523Y-48413200D01*
X151455523Y-48413200D02*
X151312666Y-48460819D01*
X151312666Y-48460819D02*
X151217428Y-48460819D01*
X151217428Y-48460819D02*
X151074571Y-48413200D01*
X151074571Y-48413200D02*
X150979333Y-48317961D01*
X150979333Y-48317961D02*
X150931714Y-48222723D01*
X150931714Y-48222723D02*
X150884095Y-48032247D01*
X150884095Y-48032247D02*
X150884095Y-47889390D01*
X150884095Y-47889390D02*
X150931714Y-47698914D01*
X150931714Y-47698914D02*
X150979333Y-47603676D01*
X150979333Y-47603676D02*
X151074571Y-47508438D01*
X151074571Y-47508438D02*
X151217428Y-47460819D01*
X151217428Y-47460819D02*
X151312666Y-47460819D01*
X151312666Y-47460819D02*
X151455523Y-47508438D01*
X151455523Y-47508438D02*
X151503142Y-47556057D01*
X152455523Y-48460819D02*
X151884095Y-48460819D01*
X152169809Y-48460819D02*
X152169809Y-47460819D01*
X152169809Y-47460819D02*
X152074571Y-47603676D01*
X152074571Y-47603676D02*
X151979333Y-47698914D01*
X151979333Y-47698914D02*
X151884095Y-47746533D01*
X152788857Y-47460819D02*
X153407904Y-47460819D01*
X153407904Y-47460819D02*
X153074571Y-47841771D01*
X153074571Y-47841771D02*
X153217428Y-47841771D01*
X153217428Y-47841771D02*
X153312666Y-47889390D01*
X153312666Y-47889390D02*
X153360285Y-47937009D01*
X153360285Y-47937009D02*
X153407904Y-48032247D01*
X153407904Y-48032247D02*
X153407904Y-48270342D01*
X153407904Y-48270342D02*
X153360285Y-48365580D01*
X153360285Y-48365580D02*
X153312666Y-48413200D01*
X153312666Y-48413200D02*
X153217428Y-48460819D01*
X153217428Y-48460819D02*
X152931714Y-48460819D01*
X152931714Y-48460819D02*
X152836476Y-48413200D01*
X152836476Y-48413200D02*
X152788857Y-48365580D01*
X135837705Y-52042219D02*
X135837705Y-51042219D01*
X135837705Y-51042219D02*
X136075800Y-51042219D01*
X136075800Y-51042219D02*
X136218657Y-51089838D01*
X136218657Y-51089838D02*
X136313895Y-51185076D01*
X136313895Y-51185076D02*
X136361514Y-51280314D01*
X136361514Y-51280314D02*
X136409133Y-51470790D01*
X136409133Y-51470790D02*
X136409133Y-51613647D01*
X136409133Y-51613647D02*
X136361514Y-51804123D01*
X136361514Y-51804123D02*
X136313895Y-51899361D01*
X136313895Y-51899361D02*
X136218657Y-51994600D01*
X136218657Y-51994600D02*
X136075800Y-52042219D01*
X136075800Y-52042219D02*
X135837705Y-52042219D01*
X137361514Y-52042219D02*
X136790086Y-52042219D01*
X137075800Y-52042219D02*
X137075800Y-51042219D01*
X137075800Y-51042219D02*
X136980562Y-51185076D01*
X136980562Y-51185076D02*
X136885324Y-51280314D01*
X136885324Y-51280314D02*
X136790086Y-51327933D01*
X89495333Y-45952580D02*
X89447714Y-46000200D01*
X89447714Y-46000200D02*
X89304857Y-46047819D01*
X89304857Y-46047819D02*
X89209619Y-46047819D01*
X89209619Y-46047819D02*
X89066762Y-46000200D01*
X89066762Y-46000200D02*
X88971524Y-45904961D01*
X88971524Y-45904961D02*
X88923905Y-45809723D01*
X88923905Y-45809723D02*
X88876286Y-45619247D01*
X88876286Y-45619247D02*
X88876286Y-45476390D01*
X88876286Y-45476390D02*
X88923905Y-45285914D01*
X88923905Y-45285914D02*
X88971524Y-45190676D01*
X88971524Y-45190676D02*
X89066762Y-45095438D01*
X89066762Y-45095438D02*
X89209619Y-45047819D01*
X89209619Y-45047819D02*
X89304857Y-45047819D01*
X89304857Y-45047819D02*
X89447714Y-45095438D01*
X89447714Y-45095438D02*
X89495333Y-45143057D01*
X90400095Y-45047819D02*
X89923905Y-45047819D01*
X89923905Y-45047819D02*
X89876286Y-45524009D01*
X89876286Y-45524009D02*
X89923905Y-45476390D01*
X89923905Y-45476390D02*
X90019143Y-45428771D01*
X90019143Y-45428771D02*
X90257238Y-45428771D01*
X90257238Y-45428771D02*
X90352476Y-45476390D01*
X90352476Y-45476390D02*
X90400095Y-45524009D01*
X90400095Y-45524009D02*
X90447714Y-45619247D01*
X90447714Y-45619247D02*
X90447714Y-45857342D01*
X90447714Y-45857342D02*
X90400095Y-45952580D01*
X90400095Y-45952580D02*
X90352476Y-46000200D01*
X90352476Y-46000200D02*
X90257238Y-46047819D01*
X90257238Y-46047819D02*
X90019143Y-46047819D01*
X90019143Y-46047819D02*
X89923905Y-46000200D01*
X89923905Y-46000200D02*
X89876286Y-45952580D01*
X183659542Y-87780019D02*
X183326209Y-87303828D01*
X183088114Y-87780019D02*
X183088114Y-86780019D01*
X183088114Y-86780019D02*
X183469066Y-86780019D01*
X183469066Y-86780019D02*
X183564304Y-86827638D01*
X183564304Y-86827638D02*
X183611923Y-86875257D01*
X183611923Y-86875257D02*
X183659542Y-86970495D01*
X183659542Y-86970495D02*
X183659542Y-87113352D01*
X183659542Y-87113352D02*
X183611923Y-87208590D01*
X183611923Y-87208590D02*
X183564304Y-87256209D01*
X183564304Y-87256209D02*
X183469066Y-87303828D01*
X183469066Y-87303828D02*
X183088114Y-87303828D01*
X184040495Y-86875257D02*
X184088114Y-86827638D01*
X184088114Y-86827638D02*
X184183352Y-86780019D01*
X184183352Y-86780019D02*
X184421447Y-86780019D01*
X184421447Y-86780019D02*
X184516685Y-86827638D01*
X184516685Y-86827638D02*
X184564304Y-86875257D01*
X184564304Y-86875257D02*
X184611923Y-86970495D01*
X184611923Y-86970495D02*
X184611923Y-87065733D01*
X184611923Y-87065733D02*
X184564304Y-87208590D01*
X184564304Y-87208590D02*
X183992876Y-87780019D01*
X183992876Y-87780019D02*
X184611923Y-87780019D01*
X185469066Y-87113352D02*
X185469066Y-87780019D01*
X185230971Y-86732400D02*
X184992876Y-87446685D01*
X184992876Y-87446685D02*
X185611923Y-87446685D01*
X122298619Y-45658066D02*
X121822428Y-45991399D01*
X122298619Y-46229494D02*
X121298619Y-46229494D01*
X121298619Y-46229494D02*
X121298619Y-45848542D01*
X121298619Y-45848542D02*
X121346238Y-45753304D01*
X121346238Y-45753304D02*
X121393857Y-45705685D01*
X121393857Y-45705685D02*
X121489095Y-45658066D01*
X121489095Y-45658066D02*
X121631952Y-45658066D01*
X121631952Y-45658066D02*
X121727190Y-45705685D01*
X121727190Y-45705685D02*
X121774809Y-45753304D01*
X121774809Y-45753304D02*
X121822428Y-45848542D01*
X121822428Y-45848542D02*
X121822428Y-46229494D01*
X121298619Y-45324732D02*
X121298619Y-44705685D01*
X121298619Y-44705685D02*
X121679571Y-45039018D01*
X121679571Y-45039018D02*
X121679571Y-44896161D01*
X121679571Y-44896161D02*
X121727190Y-44800923D01*
X121727190Y-44800923D02*
X121774809Y-44753304D01*
X121774809Y-44753304D02*
X121870047Y-44705685D01*
X121870047Y-44705685D02*
X122108142Y-44705685D01*
X122108142Y-44705685D02*
X122203380Y-44753304D01*
X122203380Y-44753304D02*
X122251000Y-44800923D01*
X122251000Y-44800923D02*
X122298619Y-44896161D01*
X122298619Y-44896161D02*
X122298619Y-45181875D01*
X122298619Y-45181875D02*
X122251000Y-45277113D01*
X122251000Y-45277113D02*
X122203380Y-45324732D01*
X118431319Y-76016857D02*
X117955128Y-76350190D01*
X118431319Y-76588285D02*
X117431319Y-76588285D01*
X117431319Y-76588285D02*
X117431319Y-76207333D01*
X117431319Y-76207333D02*
X117478938Y-76112095D01*
X117478938Y-76112095D02*
X117526557Y-76064476D01*
X117526557Y-76064476D02*
X117621795Y-76016857D01*
X117621795Y-76016857D02*
X117764652Y-76016857D01*
X117764652Y-76016857D02*
X117859890Y-76064476D01*
X117859890Y-76064476D02*
X117907509Y-76112095D01*
X117907509Y-76112095D02*
X117955128Y-76207333D01*
X117955128Y-76207333D02*
X117955128Y-76588285D01*
X118431319Y-75064476D02*
X118431319Y-75635904D01*
X118431319Y-75350190D02*
X117431319Y-75350190D01*
X117431319Y-75350190D02*
X117574176Y-75445428D01*
X117574176Y-75445428D02*
X117669414Y-75540666D01*
X117669414Y-75540666D02*
X117717033Y-75635904D01*
X118431319Y-74112095D02*
X118431319Y-74683523D01*
X118431319Y-74397809D02*
X117431319Y-74397809D01*
X117431319Y-74397809D02*
X117574176Y-74493047D01*
X117574176Y-74493047D02*
X117669414Y-74588285D01*
X117669414Y-74588285D02*
X117717033Y-74683523D01*
X113924342Y-67147619D02*
X113591009Y-66671428D01*
X113352914Y-67147619D02*
X113352914Y-66147619D01*
X113352914Y-66147619D02*
X113733866Y-66147619D01*
X113733866Y-66147619D02*
X113829104Y-66195238D01*
X113829104Y-66195238D02*
X113876723Y-66242857D01*
X113876723Y-66242857D02*
X113924342Y-66338095D01*
X113924342Y-66338095D02*
X113924342Y-66480952D01*
X113924342Y-66480952D02*
X113876723Y-66576190D01*
X113876723Y-66576190D02*
X113829104Y-66623809D01*
X113829104Y-66623809D02*
X113733866Y-66671428D01*
X113733866Y-66671428D02*
X113352914Y-66671428D01*
X114876723Y-67147619D02*
X114305295Y-67147619D01*
X114591009Y-67147619D02*
X114591009Y-66147619D01*
X114591009Y-66147619D02*
X114495771Y-66290476D01*
X114495771Y-66290476D02*
X114400533Y-66385714D01*
X114400533Y-66385714D02*
X114305295Y-66433333D01*
X115495771Y-66147619D02*
X115591009Y-66147619D01*
X115591009Y-66147619D02*
X115686247Y-66195238D01*
X115686247Y-66195238D02*
X115733866Y-66242857D01*
X115733866Y-66242857D02*
X115781485Y-66338095D01*
X115781485Y-66338095D02*
X115829104Y-66528571D01*
X115829104Y-66528571D02*
X115829104Y-66766666D01*
X115829104Y-66766666D02*
X115781485Y-66957142D01*
X115781485Y-66957142D02*
X115733866Y-67052380D01*
X115733866Y-67052380D02*
X115686247Y-67100000D01*
X115686247Y-67100000D02*
X115591009Y-67147619D01*
X115591009Y-67147619D02*
X115495771Y-67147619D01*
X115495771Y-67147619D02*
X115400533Y-67100000D01*
X115400533Y-67100000D02*
X115352914Y-67052380D01*
X115352914Y-67052380D02*
X115305295Y-66957142D01*
X115305295Y-66957142D02*
X115257676Y-66766666D01*
X115257676Y-66766666D02*
X115257676Y-66528571D01*
X115257676Y-66528571D02*
X115305295Y-66338095D01*
X115305295Y-66338095D02*
X115352914Y-66242857D01*
X115352914Y-66242857D02*
X115400533Y-66195238D01*
X115400533Y-66195238D02*
X115495771Y-66147619D01*
X170037642Y-68967419D02*
X169704309Y-68491228D01*
X169466214Y-68967419D02*
X169466214Y-67967419D01*
X169466214Y-67967419D02*
X169847166Y-67967419D01*
X169847166Y-67967419D02*
X169942404Y-68015038D01*
X169942404Y-68015038D02*
X169990023Y-68062657D01*
X169990023Y-68062657D02*
X170037642Y-68157895D01*
X170037642Y-68157895D02*
X170037642Y-68300752D01*
X170037642Y-68300752D02*
X169990023Y-68395990D01*
X169990023Y-68395990D02*
X169942404Y-68443609D01*
X169942404Y-68443609D02*
X169847166Y-68491228D01*
X169847166Y-68491228D02*
X169466214Y-68491228D01*
X170990023Y-68967419D02*
X170418595Y-68967419D01*
X170704309Y-68967419D02*
X170704309Y-67967419D01*
X170704309Y-67967419D02*
X170609071Y-68110276D01*
X170609071Y-68110276D02*
X170513833Y-68205514D01*
X170513833Y-68205514D02*
X170418595Y-68253133D01*
X171847166Y-68300752D02*
X171847166Y-68967419D01*
X171609071Y-67919800D02*
X171370976Y-68634085D01*
X171370976Y-68634085D02*
X171990023Y-68634085D01*
X129670980Y-45531066D02*
X129718600Y-45578685D01*
X129718600Y-45578685D02*
X129766219Y-45721542D01*
X129766219Y-45721542D02*
X129766219Y-45816780D01*
X129766219Y-45816780D02*
X129718600Y-45959637D01*
X129718600Y-45959637D02*
X129623361Y-46054875D01*
X129623361Y-46054875D02*
X129528123Y-46102494D01*
X129528123Y-46102494D02*
X129337647Y-46150113D01*
X129337647Y-46150113D02*
X129194790Y-46150113D01*
X129194790Y-46150113D02*
X129004314Y-46102494D01*
X129004314Y-46102494D02*
X128909076Y-46054875D01*
X128909076Y-46054875D02*
X128813838Y-45959637D01*
X128813838Y-45959637D02*
X128766219Y-45816780D01*
X128766219Y-45816780D02*
X128766219Y-45721542D01*
X128766219Y-45721542D02*
X128813838Y-45578685D01*
X128813838Y-45578685D02*
X128861457Y-45531066D01*
X128766219Y-45197732D02*
X128766219Y-44578685D01*
X128766219Y-44578685D02*
X129147171Y-44912018D01*
X129147171Y-44912018D02*
X129147171Y-44769161D01*
X129147171Y-44769161D02*
X129194790Y-44673923D01*
X129194790Y-44673923D02*
X129242409Y-44626304D01*
X129242409Y-44626304D02*
X129337647Y-44578685D01*
X129337647Y-44578685D02*
X129575742Y-44578685D01*
X129575742Y-44578685D02*
X129670980Y-44626304D01*
X129670980Y-44626304D02*
X129718600Y-44673923D01*
X129718600Y-44673923D02*
X129766219Y-44769161D01*
X129766219Y-44769161D02*
X129766219Y-45054875D01*
X129766219Y-45054875D02*
X129718600Y-45150113D01*
X129718600Y-45150113D02*
X129670980Y-45197732D01*
X127087333Y-60348019D02*
X126754000Y-59871828D01*
X126515905Y-60348019D02*
X126515905Y-59348019D01*
X126515905Y-59348019D02*
X126896857Y-59348019D01*
X126896857Y-59348019D02*
X126992095Y-59395638D01*
X126992095Y-59395638D02*
X127039714Y-59443257D01*
X127039714Y-59443257D02*
X127087333Y-59538495D01*
X127087333Y-59538495D02*
X127087333Y-59681352D01*
X127087333Y-59681352D02*
X127039714Y-59776590D01*
X127039714Y-59776590D02*
X126992095Y-59824209D01*
X126992095Y-59824209D02*
X126896857Y-59871828D01*
X126896857Y-59871828D02*
X126515905Y-59871828D01*
X127992095Y-59348019D02*
X127515905Y-59348019D01*
X127515905Y-59348019D02*
X127468286Y-59824209D01*
X127468286Y-59824209D02*
X127515905Y-59776590D01*
X127515905Y-59776590D02*
X127611143Y-59728971D01*
X127611143Y-59728971D02*
X127849238Y-59728971D01*
X127849238Y-59728971D02*
X127944476Y-59776590D01*
X127944476Y-59776590D02*
X127992095Y-59824209D01*
X127992095Y-59824209D02*
X128039714Y-59919447D01*
X128039714Y-59919447D02*
X128039714Y-60157542D01*
X128039714Y-60157542D02*
X127992095Y-60252780D01*
X127992095Y-60252780D02*
X127944476Y-60300400D01*
X127944476Y-60300400D02*
X127849238Y-60348019D01*
X127849238Y-60348019D02*
X127611143Y-60348019D01*
X127611143Y-60348019D02*
X127515905Y-60300400D01*
X127515905Y-60300400D02*
X127468286Y-60252780D01*
X85863533Y-65656619D02*
X85530200Y-65180428D01*
X85292105Y-65656619D02*
X85292105Y-64656619D01*
X85292105Y-64656619D02*
X85673057Y-64656619D01*
X85673057Y-64656619D02*
X85768295Y-64704238D01*
X85768295Y-64704238D02*
X85815914Y-64751857D01*
X85815914Y-64751857D02*
X85863533Y-64847095D01*
X85863533Y-64847095D02*
X85863533Y-64989952D01*
X85863533Y-64989952D02*
X85815914Y-65085190D01*
X85815914Y-65085190D02*
X85768295Y-65132809D01*
X85768295Y-65132809D02*
X85673057Y-65180428D01*
X85673057Y-65180428D02*
X85292105Y-65180428D01*
X86720676Y-64656619D02*
X86530200Y-64656619D01*
X86530200Y-64656619D02*
X86434962Y-64704238D01*
X86434962Y-64704238D02*
X86387343Y-64751857D01*
X86387343Y-64751857D02*
X86292105Y-64894714D01*
X86292105Y-64894714D02*
X86244486Y-65085190D01*
X86244486Y-65085190D02*
X86244486Y-65466142D01*
X86244486Y-65466142D02*
X86292105Y-65561380D01*
X86292105Y-65561380D02*
X86339724Y-65609000D01*
X86339724Y-65609000D02*
X86434962Y-65656619D01*
X86434962Y-65656619D02*
X86625438Y-65656619D01*
X86625438Y-65656619D02*
X86720676Y-65609000D01*
X86720676Y-65609000D02*
X86768295Y-65561380D01*
X86768295Y-65561380D02*
X86815914Y-65466142D01*
X86815914Y-65466142D02*
X86815914Y-65228047D01*
X86815914Y-65228047D02*
X86768295Y-65132809D01*
X86768295Y-65132809D02*
X86720676Y-65085190D01*
X86720676Y-65085190D02*
X86625438Y-65037571D01*
X86625438Y-65037571D02*
X86434962Y-65037571D01*
X86434962Y-65037571D02*
X86339724Y-65085190D01*
X86339724Y-65085190D02*
X86292105Y-65132809D01*
X86292105Y-65132809D02*
X86244486Y-65228047D01*
X129869133Y-63751619D02*
X129535800Y-63275428D01*
X129297705Y-63751619D02*
X129297705Y-62751619D01*
X129297705Y-62751619D02*
X129678657Y-62751619D01*
X129678657Y-62751619D02*
X129773895Y-62799238D01*
X129773895Y-62799238D02*
X129821514Y-62846857D01*
X129821514Y-62846857D02*
X129869133Y-62942095D01*
X129869133Y-62942095D02*
X129869133Y-63084952D01*
X129869133Y-63084952D02*
X129821514Y-63180190D01*
X129821514Y-63180190D02*
X129773895Y-63227809D01*
X129773895Y-63227809D02*
X129678657Y-63275428D01*
X129678657Y-63275428D02*
X129297705Y-63275428D01*
X130440562Y-63180190D02*
X130345324Y-63132571D01*
X130345324Y-63132571D02*
X130297705Y-63084952D01*
X130297705Y-63084952D02*
X130250086Y-62989714D01*
X130250086Y-62989714D02*
X130250086Y-62942095D01*
X130250086Y-62942095D02*
X130297705Y-62846857D01*
X130297705Y-62846857D02*
X130345324Y-62799238D01*
X130345324Y-62799238D02*
X130440562Y-62751619D01*
X130440562Y-62751619D02*
X130631038Y-62751619D01*
X130631038Y-62751619D02*
X130726276Y-62799238D01*
X130726276Y-62799238D02*
X130773895Y-62846857D01*
X130773895Y-62846857D02*
X130821514Y-62942095D01*
X130821514Y-62942095D02*
X130821514Y-62989714D01*
X130821514Y-62989714D02*
X130773895Y-63084952D01*
X130773895Y-63084952D02*
X130726276Y-63132571D01*
X130726276Y-63132571D02*
X130631038Y-63180190D01*
X130631038Y-63180190D02*
X130440562Y-63180190D01*
X130440562Y-63180190D02*
X130345324Y-63227809D01*
X130345324Y-63227809D02*
X130297705Y-63275428D01*
X130297705Y-63275428D02*
X130250086Y-63370666D01*
X130250086Y-63370666D02*
X130250086Y-63561142D01*
X130250086Y-63561142D02*
X130297705Y-63656380D01*
X130297705Y-63656380D02*
X130345324Y-63704000D01*
X130345324Y-63704000D02*
X130440562Y-63751619D01*
X130440562Y-63751619D02*
X130631038Y-63751619D01*
X130631038Y-63751619D02*
X130726276Y-63704000D01*
X130726276Y-63704000D02*
X130773895Y-63656380D01*
X130773895Y-63656380D02*
X130821514Y-63561142D01*
X130821514Y-63561142D02*
X130821514Y-63370666D01*
X130821514Y-63370666D02*
X130773895Y-63275428D01*
X130773895Y-63275428D02*
X130726276Y-63227809D01*
X130726276Y-63227809D02*
X130631038Y-63180190D01*
X111376619Y-76016857D02*
X110900428Y-76350190D01*
X111376619Y-76588285D02*
X110376619Y-76588285D01*
X110376619Y-76588285D02*
X110376619Y-76207333D01*
X110376619Y-76207333D02*
X110424238Y-76112095D01*
X110424238Y-76112095D02*
X110471857Y-76064476D01*
X110471857Y-76064476D02*
X110567095Y-76016857D01*
X110567095Y-76016857D02*
X110709952Y-76016857D01*
X110709952Y-76016857D02*
X110805190Y-76064476D01*
X110805190Y-76064476D02*
X110852809Y-76112095D01*
X110852809Y-76112095D02*
X110900428Y-76207333D01*
X110900428Y-76207333D02*
X110900428Y-76588285D01*
X111376619Y-75064476D02*
X111376619Y-75635904D01*
X111376619Y-75350190D02*
X110376619Y-75350190D01*
X110376619Y-75350190D02*
X110519476Y-75445428D01*
X110519476Y-75445428D02*
X110614714Y-75540666D01*
X110614714Y-75540666D02*
X110662333Y-75635904D01*
X110471857Y-74683523D02*
X110424238Y-74635904D01*
X110424238Y-74635904D02*
X110376619Y-74540666D01*
X110376619Y-74540666D02*
X110376619Y-74302571D01*
X110376619Y-74302571D02*
X110424238Y-74207333D01*
X110424238Y-74207333D02*
X110471857Y-74159714D01*
X110471857Y-74159714D02*
X110567095Y-74112095D01*
X110567095Y-74112095D02*
X110662333Y-74112095D01*
X110662333Y-74112095D02*
X110805190Y-74159714D01*
X110805190Y-74159714D02*
X111376619Y-74731142D01*
X111376619Y-74731142D02*
X111376619Y-74112095D01*
X94270533Y-64107219D02*
X93937200Y-63631028D01*
X93699105Y-64107219D02*
X93699105Y-63107219D01*
X93699105Y-63107219D02*
X94080057Y-63107219D01*
X94080057Y-63107219D02*
X94175295Y-63154838D01*
X94175295Y-63154838D02*
X94222914Y-63202457D01*
X94222914Y-63202457D02*
X94270533Y-63297695D01*
X94270533Y-63297695D02*
X94270533Y-63440552D01*
X94270533Y-63440552D02*
X94222914Y-63535790D01*
X94222914Y-63535790D02*
X94175295Y-63583409D01*
X94175295Y-63583409D02*
X94080057Y-63631028D01*
X94080057Y-63631028D02*
X93699105Y-63631028D01*
X94603867Y-63107219D02*
X95270533Y-63107219D01*
X95270533Y-63107219D02*
X94841962Y-64107219D01*
X90006414Y-83944619D02*
X90006414Y-82944619D01*
X90006414Y-82944619D02*
X90244509Y-82944619D01*
X90244509Y-82944619D02*
X90387366Y-82992238D01*
X90387366Y-82992238D02*
X90482604Y-83087476D01*
X90482604Y-83087476D02*
X90530223Y-83182714D01*
X90530223Y-83182714D02*
X90577842Y-83373190D01*
X90577842Y-83373190D02*
X90577842Y-83516047D01*
X90577842Y-83516047D02*
X90530223Y-83706523D01*
X90530223Y-83706523D02*
X90482604Y-83801761D01*
X90482604Y-83801761D02*
X90387366Y-83897000D01*
X90387366Y-83897000D02*
X90244509Y-83944619D01*
X90244509Y-83944619D02*
X90006414Y-83944619D01*
X90958795Y-83897000D02*
X91101652Y-83944619D01*
X91101652Y-83944619D02*
X91339747Y-83944619D01*
X91339747Y-83944619D02*
X91434985Y-83897000D01*
X91434985Y-83897000D02*
X91482604Y-83849380D01*
X91482604Y-83849380D02*
X91530223Y-83754142D01*
X91530223Y-83754142D02*
X91530223Y-83658904D01*
X91530223Y-83658904D02*
X91482604Y-83563666D01*
X91482604Y-83563666D02*
X91434985Y-83516047D01*
X91434985Y-83516047D02*
X91339747Y-83468428D01*
X91339747Y-83468428D02*
X91149271Y-83420809D01*
X91149271Y-83420809D02*
X91054033Y-83373190D01*
X91054033Y-83373190D02*
X91006414Y-83325571D01*
X91006414Y-83325571D02*
X90958795Y-83230333D01*
X90958795Y-83230333D02*
X90958795Y-83135095D01*
X90958795Y-83135095D02*
X91006414Y-83039857D01*
X91006414Y-83039857D02*
X91054033Y-82992238D01*
X91054033Y-82992238D02*
X91149271Y-82944619D01*
X91149271Y-82944619D02*
X91387366Y-82944619D01*
X91387366Y-82944619D02*
X91530223Y-82992238D01*
X92482604Y-83944619D02*
X91911176Y-83944619D01*
X92196890Y-83944619D02*
X92196890Y-82944619D01*
X92196890Y-82944619D02*
X92101652Y-83087476D01*
X92101652Y-83087476D02*
X92006414Y-83182714D01*
X92006414Y-83182714D02*
X91911176Y-83230333D01*
X152423905Y-57604819D02*
X152423905Y-56604819D01*
X152423905Y-56604819D02*
X152662000Y-56604819D01*
X152662000Y-56604819D02*
X152804857Y-56652438D01*
X152804857Y-56652438D02*
X152900095Y-56747676D01*
X152900095Y-56747676D02*
X152947714Y-56842914D01*
X152947714Y-56842914D02*
X152995333Y-57033390D01*
X152995333Y-57033390D02*
X152995333Y-57176247D01*
X152995333Y-57176247D02*
X152947714Y-57366723D01*
X152947714Y-57366723D02*
X152900095Y-57461961D01*
X152900095Y-57461961D02*
X152804857Y-57557200D01*
X152804857Y-57557200D02*
X152662000Y-57604819D01*
X152662000Y-57604819D02*
X152423905Y-57604819D01*
X153376286Y-56700057D02*
X153423905Y-56652438D01*
X153423905Y-56652438D02*
X153519143Y-56604819D01*
X153519143Y-56604819D02*
X153757238Y-56604819D01*
X153757238Y-56604819D02*
X153852476Y-56652438D01*
X153852476Y-56652438D02*
X153900095Y-56700057D01*
X153900095Y-56700057D02*
X153947714Y-56795295D01*
X153947714Y-56795295D02*
X153947714Y-56890533D01*
X153947714Y-56890533D02*
X153900095Y-57033390D01*
X153900095Y-57033390D02*
X153328667Y-57604819D01*
X153328667Y-57604819D02*
X153947714Y-57604819D01*
X141774942Y-73175019D02*
X141441609Y-72698828D01*
X141203514Y-73175019D02*
X141203514Y-72175019D01*
X141203514Y-72175019D02*
X141584466Y-72175019D01*
X141584466Y-72175019D02*
X141679704Y-72222638D01*
X141679704Y-72222638D02*
X141727323Y-72270257D01*
X141727323Y-72270257D02*
X141774942Y-72365495D01*
X141774942Y-72365495D02*
X141774942Y-72508352D01*
X141774942Y-72508352D02*
X141727323Y-72603590D01*
X141727323Y-72603590D02*
X141679704Y-72651209D01*
X141679704Y-72651209D02*
X141584466Y-72698828D01*
X141584466Y-72698828D02*
X141203514Y-72698828D01*
X142155895Y-72270257D02*
X142203514Y-72222638D01*
X142203514Y-72222638D02*
X142298752Y-72175019D01*
X142298752Y-72175019D02*
X142536847Y-72175019D01*
X142536847Y-72175019D02*
X142632085Y-72222638D01*
X142632085Y-72222638D02*
X142679704Y-72270257D01*
X142679704Y-72270257D02*
X142727323Y-72365495D01*
X142727323Y-72365495D02*
X142727323Y-72460733D01*
X142727323Y-72460733D02*
X142679704Y-72603590D01*
X142679704Y-72603590D02*
X142108276Y-73175019D01*
X142108276Y-73175019D02*
X142727323Y-73175019D01*
X143679704Y-73175019D02*
X143108276Y-73175019D01*
X143393990Y-73175019D02*
X143393990Y-72175019D01*
X143393990Y-72175019D02*
X143298752Y-72317876D01*
X143298752Y-72317876D02*
X143203514Y-72413114D01*
X143203514Y-72413114D02*
X143108276Y-72460733D01*
D12*
%TO.C,Q4*%
X116865000Y-71320900D02*
X116865000Y-70670900D01*
X116865000Y-71320900D02*
X116865000Y-71970900D01*
X119985000Y-71320900D02*
X119985000Y-70670900D01*
X119985000Y-71320900D02*
X119985000Y-71970900D01*
X120265000Y-70398400D02*
X119935000Y-70158400D01*
X120265000Y-69918400D01*
X120265000Y-70398400D01*
G36*
X120265000Y-70398400D02*
G01*
X119935000Y-70158400D01*
X120265000Y-69918400D01*
X120265000Y-70398400D01*
G37*
%TO.C,Q3*%
X115341300Y-70248300D02*
X115011300Y-70008300D01*
X115341300Y-69768300D01*
X115341300Y-70248300D01*
G36*
X115341300Y-70248300D02*
G01*
X115011300Y-70008300D01*
X115341300Y-69768300D01*
X115341300Y-70248300D01*
G37*
X115061300Y-71170800D02*
X115061300Y-71820800D01*
X115061300Y-71170800D02*
X115061300Y-70520800D01*
X111941300Y-71170800D02*
X111941300Y-71820800D01*
X111941300Y-71170800D02*
X111941300Y-70520800D01*
%TO.C,Q1*%
X87340000Y-61925200D02*
X87340000Y-61275200D01*
X87340000Y-61925200D02*
X87340000Y-62575200D01*
X90460000Y-61925200D02*
X90460000Y-61275200D01*
X90460000Y-61925200D02*
X90460000Y-62575200D01*
X87390000Y-63087700D02*
X87060000Y-63327700D01*
X87060000Y-62847700D01*
X87390000Y-63087700D01*
G36*
X87390000Y-63087700D02*
G01*
X87060000Y-63327700D01*
X87060000Y-62847700D01*
X87390000Y-63087700D01*
G37*
%TO.C,Q2*%
X122783600Y-60416000D02*
X122133600Y-60416000D01*
X122783600Y-60416000D02*
X123433600Y-60416000D01*
X122783600Y-63536000D02*
X122133600Y-63536000D01*
X122783600Y-63536000D02*
X123433600Y-63536000D01*
X124186100Y-63816000D02*
X123706100Y-63816000D01*
X123946100Y-63486000D01*
X124186100Y-63816000D01*
G36*
X124186100Y-63816000D02*
G01*
X123706100Y-63816000D01*
X123946100Y-63486000D01*
X124186100Y-63816000D01*
G37*
%TO.C,C12*%
X150481420Y-51306000D02*
X150762580Y-51306000D01*
X150481420Y-52326000D02*
X150762580Y-52326000D01*
%TO.C,C1*%
X146616000Y-45550000D02*
X146616000Y-47160000D01*
X146616000Y-47160000D02*
X149336000Y-47160000D01*
X149336000Y-45550000D02*
X146616000Y-45550000D01*
%TO.C,R13*%
X166706042Y-66127700D02*
X167180558Y-66127700D01*
X166706042Y-67172700D02*
X167180558Y-67172700D01*
%TO.C,C8*%
X166815720Y-64260600D02*
X167096880Y-64260600D01*
X166815720Y-65280600D02*
X167096880Y-65280600D01*
%TO.C,R15*%
X166731442Y-69963100D02*
X167205958Y-69963100D01*
X166731442Y-71008100D02*
X167205958Y-71008100D01*
%TO.C,C11*%
X138860620Y-74039000D02*
X139141780Y-74039000D01*
X138860620Y-75059000D02*
X139141780Y-75059000D01*
%TO.C,Rp1*%
X74688200Y-71909200D02*
X74688200Y-81659200D01*
X74688200Y-71909200D02*
X84438200Y-71909200D01*
X74688200Y-81659200D02*
X84438200Y-81659200D01*
X84438200Y-71909200D02*
X84438200Y-81659200D01*
%TO.C,C9*%
X166801920Y-73658600D02*
X167083080Y-73658600D01*
X166801920Y-74678600D02*
X167083080Y-74678600D01*
%TO.C,R19*%
X138790142Y-68387700D02*
X139264658Y-68387700D01*
X138790142Y-69432700D02*
X139264658Y-69432700D01*
%TO.C,C7*%
X88206252Y-50496800D02*
X87683748Y-50496800D01*
X88206252Y-51966800D02*
X87683748Y-51966800D01*
%TO.C,R4*%
X90155500Y-50181742D02*
X90155500Y-50656258D01*
X91200500Y-50181742D02*
X91200500Y-50656258D01*
%TO.C,U2*%
X123848600Y-51648800D02*
X123848600Y-52123800D01*
X123848600Y-55868800D02*
X123848600Y-55393800D01*
X124323600Y-51648800D02*
X123848600Y-51648800D01*
X124323600Y-55868800D02*
X123848600Y-55868800D01*
X127593600Y-51648800D02*
X128068600Y-51648800D01*
X127593600Y-55868800D02*
X127768600Y-55868800D01*
X128068600Y-51648800D02*
X128068600Y-52123800D01*
X128068600Y-55393800D02*
X128068600Y-55628800D01*
X128308600Y-56198800D02*
X127828600Y-56198800D01*
X128068600Y-55868800D01*
X128308600Y-56198800D01*
G36*
X128308600Y-56198800D02*
G01*
X127828600Y-56198800D01*
X128068600Y-55868800D01*
X128308600Y-56198800D01*
G37*
%TO.C,R16*%
X167180558Y-71842700D02*
X166706042Y-71842700D01*
X167180558Y-72887700D02*
X166706042Y-72887700D01*
%TO.C,R20*%
X138790142Y-70318100D02*
X139264658Y-70318100D01*
X138790142Y-71363100D02*
X139264658Y-71363100D01*
%TO.C,U3*%
X142285800Y-49244200D02*
X142285800Y-50504200D01*
X142285800Y-56064200D02*
X142285800Y-54804200D01*
X146045800Y-49244200D02*
X142285800Y-49244200D01*
X146045800Y-56064200D02*
X142285800Y-56064200D01*
X147565800Y-56294200D02*
X147085800Y-56294200D01*
X147325800Y-55964200D01*
X147565800Y-56294200D01*
G36*
X147565800Y-56294200D02*
G01*
X147085800Y-56294200D01*
X147325800Y-55964200D01*
X147565800Y-56294200D01*
G37*
%TO.C,U5*%
X94182200Y-68628600D02*
X94182200Y-68883600D01*
X94182200Y-79148600D02*
X94182200Y-78893600D01*
X98042200Y-68628600D02*
X94182200Y-68628600D01*
X98042200Y-68628600D02*
X101902200Y-68628600D01*
X98042200Y-79148600D02*
X94182200Y-79148600D01*
X98042200Y-79148600D02*
X101902200Y-79148600D01*
X101902200Y-68628600D02*
X101902200Y-68883600D01*
X101902200Y-79148600D02*
X101902200Y-78893600D01*
X93329700Y-68883600D02*
X92989700Y-68413600D01*
X93669700Y-68413600D01*
X93329700Y-68883600D01*
G36*
X93329700Y-68883600D02*
G01*
X92989700Y-68413600D01*
X93669700Y-68413600D01*
X93329700Y-68883600D01*
G37*
%TO.C,R2*%
X122997700Y-48378342D02*
X122997700Y-48852858D01*
X124042700Y-48378342D02*
X124042700Y-48852858D01*
%TO.C,BOOT1*%
X122069600Y-64407600D02*
X122069600Y-64457600D01*
X122069600Y-64407600D02*
X126969600Y-64407600D01*
X122069600Y-66107600D02*
X122069600Y-67607600D01*
X122069600Y-69307600D02*
X122069600Y-69257600D01*
X122069600Y-69307600D02*
X126969600Y-69307600D01*
X126969600Y-64407600D02*
X126969600Y-64457600D01*
X126969600Y-66107600D02*
X126969600Y-67607600D01*
X126969600Y-69307600D02*
X126969600Y-69257600D01*
%TO.C,R25*%
X150384742Y-54849500D02*
X150859258Y-54849500D01*
X150384742Y-55894500D02*
X150859258Y-55894500D01*
%TO.C,R1*%
X124715600Y-48183436D02*
X124715600Y-48637564D01*
X126185600Y-48183436D02*
X126185600Y-48637564D01*
%TO.C,R18*%
X138790142Y-66355700D02*
X139264658Y-66355700D01*
X138790142Y-67400700D02*
X139264658Y-67400700D01*
%TO.C,C10*%
X138886620Y-64381000D02*
X139167780Y-64381000D01*
X138886620Y-65401000D02*
X139167780Y-65401000D01*
%TO.C,R22*%
X138764742Y-76820500D02*
X139239258Y-76820500D01*
X138764742Y-77865500D02*
X139239258Y-77865500D01*
%TO.C,RESET1*%
X84850000Y-53591200D02*
X84850000Y-58491200D01*
X84850000Y-53591200D02*
X84900000Y-53591200D01*
X84850000Y-58491200D02*
X84900000Y-58491200D01*
X88050000Y-53591200D02*
X86550000Y-53591200D01*
X88050000Y-58491200D02*
X86550000Y-58491200D01*
X89750000Y-53591200D02*
X89700000Y-53591200D01*
X89750000Y-53591200D02*
X89750000Y-58491200D01*
X89750000Y-58491200D02*
X89700000Y-58491200D01*
%TO.C,U1*%
X96722400Y-63714200D02*
X96722400Y-62764200D01*
X98122400Y-63714200D02*
X96722400Y-63714200D01*
X113722400Y-63714200D02*
X115122400Y-63714200D01*
X115122400Y-63714200D02*
X115122400Y-62764200D01*
X96722400Y-44764200D02*
X96222400Y-44764200D01*
X96722400Y-44264200D01*
X96722400Y-44764200D01*
G36*
X96722400Y-44764200D02*
G01*
X96222400Y-44764200D01*
X96722400Y-44264200D01*
X96722400Y-44764200D01*
G37*
%TO.C,C4*%
X126820200Y-48781580D02*
X126820200Y-48500420D01*
X127840200Y-48781580D02*
X127840200Y-48500420D01*
%TO.C,R23*%
X78185742Y-86853500D02*
X78660258Y-86853500D01*
X78185742Y-87898500D02*
X78660258Y-87898500D01*
%TO.C,J1*%
X133726400Y-41277200D02*
X133726400Y-42827200D01*
X134026400Y-38477200D02*
X134026400Y-41277200D01*
X134026400Y-41277200D02*
X133726400Y-41277200D01*
X138776400Y-44527200D02*
X139176400Y-44077200D01*
X139176400Y-44077200D02*
X139576400Y-44527200D01*
X139576400Y-44527200D02*
X138776400Y-44527200D01*
X141726400Y-38477200D02*
X141726400Y-41277200D01*
X142026400Y-41277200D02*
X141726400Y-41277200D01*
X142026400Y-41277200D02*
X142026400Y-42827200D01*
%TO.C,C6*%
X93584380Y-46861000D02*
X93303220Y-46861000D01*
X93584380Y-47881000D02*
X93303220Y-47881000D01*
%TO.C,R17*%
X166706042Y-76820500D02*
X167180558Y-76820500D01*
X166706042Y-77865500D02*
X167180558Y-77865500D01*
%TO.C,C2*%
X149155000Y-52789000D02*
X149155000Y-54399000D01*
X149155000Y-54399000D02*
X151875000Y-54399000D01*
X151875000Y-52789000D02*
X149155000Y-52789000D01*
%TO.C,R9*%
X118966042Y-67625700D02*
X119440558Y-67625700D01*
X118966042Y-68670700D02*
X119440558Y-68670700D01*
%TO.C,C13*%
X147942420Y-47623000D02*
X148223580Y-47623000D01*
X147942420Y-48643000D02*
X148223580Y-48643000D01*
%TO.C,D1*%
X136611600Y-50621500D02*
X137881600Y-50621500D01*
X137911600Y-47501500D02*
X136611600Y-47501500D01*
X138501600Y-50901500D02*
X138021600Y-50901500D01*
X138261600Y-50571500D01*
X138501600Y-50901500D01*
G36*
X138501600Y-50901500D02*
G01*
X138021600Y-50901500D01*
X138261600Y-50571500D01*
X138501600Y-50901500D01*
G37*
%TO.C,C5*%
X93479252Y-44756400D02*
X92956748Y-44756400D01*
X93479252Y-46226400D02*
X92956748Y-46226400D01*
%TO.C,R24*%
X180724542Y-86777300D02*
X181199058Y-86777300D01*
X180724542Y-87822300D02*
X181199058Y-87822300D01*
%TO.C,R3*%
X121321300Y-48865058D02*
X121321300Y-48390542D01*
X122366300Y-48865058D02*
X122366300Y-48390542D01*
%TO.C,R11*%
X118884000Y-75611258D02*
X118884000Y-75136742D01*
X119929000Y-75611258D02*
X119929000Y-75136742D01*
%TO.C,R10*%
X114329942Y-67600300D02*
X114804458Y-67600300D01*
X114329942Y-68645300D02*
X114804458Y-68645300D01*
%TO.C,R14*%
X166706042Y-68108900D02*
X167180558Y-68108900D01*
X166706042Y-69153900D02*
X167180558Y-69153900D01*
%TO.C,C3*%
X128474800Y-48927652D02*
X128474800Y-48405148D01*
X129944800Y-48927652D02*
X129944800Y-48405148D01*
%TO.C,R5*%
X127003542Y-60869300D02*
X127478058Y-60869300D01*
X127003542Y-61914300D02*
X127478058Y-61914300D01*
%TO.C,R6*%
X87412700Y-65794658D02*
X87412700Y-65320142D01*
X88457700Y-65794658D02*
X88457700Y-65320142D01*
%TO.C,R8*%
X127479058Y-62520300D02*
X127004542Y-62520300D01*
X127479058Y-63565300D02*
X127004542Y-63565300D01*
%TO.C,R12*%
X111872500Y-75136742D02*
X111872500Y-75611258D01*
X112917500Y-75136742D02*
X112917500Y-75611258D01*
%TO.C,R7*%
X94737458Y-61428100D02*
X94262942Y-61428100D01*
X94737458Y-62473100D02*
X94262942Y-62473100D01*
%TO.C,DS1*%
X88900700Y-84659800D02*
X88900700Y-120939800D01*
X88900700Y-120939800D02*
X169180700Y-120939800D01*
X88910700Y-84659800D02*
X89700700Y-84659800D01*
X92040700Y-90299800D02*
X165040700Y-90299800D01*
X92040700Y-115299800D02*
X92040700Y-90299800D01*
X95540700Y-84299800D02*
X98540700Y-84299800D01*
X96740980Y-109799120D02*
X96740980Y-95799800D01*
X97240700Y-95299800D02*
X160740700Y-95299800D01*
X160741360Y-110299800D02*
X97240700Y-110299800D01*
X161240700Y-95799800D02*
X161240700Y-109799800D01*
X165040700Y-90299800D02*
X165040700Y-115299800D01*
X165040700Y-115299800D02*
X92040700Y-115299800D01*
X169180700Y-84659800D02*
X89700700Y-84659800D01*
X169180700Y-120939800D02*
X169180700Y-84659800D01*
X96740980Y-95798640D02*
G75*
G02*
X97241360Y-95298260I500380J0D01*
G01*
X97241360Y-110299500D02*
G75*
G02*
X96740980Y-109799120I0J500380D01*
G01*
X160740700Y-95299800D02*
G75*
G02*
X161240700Y-95799800I0J-500000D01*
G01*
X161241740Y-109799120D02*
G75*
G02*
X160741360Y-110299440I-500340J20D01*
G01*
%TO.C,D2*%
X149162500Y-56415000D02*
X149162500Y-57885000D01*
X149162500Y-57885000D02*
X151447500Y-57885000D01*
X151447500Y-56415000D02*
X149162500Y-56415000D01*
%TO.C,R21*%
X139239258Y-72121500D02*
X138764742Y-72121500D01*
X139239258Y-73166500D02*
X138764742Y-73166500D01*
%TD*%
M02*
