M48
; DRILL file {KiCad 9.0.2} date 2025-08-22T17:17:17-0700
; FORMAT={-:-/ absolute / metric / decimal}
; #@! TF.CreationDate,2025-08-22T17:17:17-07:00
; #@! TF.GenerationSoftware,Kicad,Pcbnew,9.0.2
; #@! TF.FileFunction,Plated,1,2,PTH
FMAT,2
METRIC
; #@! TA.AperFunction,Plated,PTH,ComponentDrill
T1C0.200
; #@! TA.AperFunction,Plated,PTH,ViaDrill
T2C0.300
; #@! TA.AperFunction,Plated,PTH,ViaDrill
T3C0.400
; #@! TA.AperFunction,Plated,PTH,ComponentDrill
T4C0.400
; #@! TA.AperFunction,Plated,PTH,ComponentDrill
T5C0.650
; #@! TA.AperFunction,Plated,PTH,ComponentDrill
T6C0.700
; #@! TA.AperFunction,Plated,PTH,ComponentDrill
T7C0.800
; #@! TA.AperFunction,Plated,PTH,ComponentDrill
T8C0.900
; #@! TA.AperFunction,Plated,PTH,ComponentDrill
T9C1.000
; #@! TA.AperFunction,Plated,PTH,ComponentDrill
T10C1.200
; #@! TA.AperFunction,Plated,PTH,ComponentDrill
T11C2.500
; #@! TA.AperFunction,Plated,PTH,ViaDrill
T12C3.100
%
G90
G05
T1
X103.022Y-52.524
X103.022Y-53.924
X103.722Y-51.824
X103.722Y-53.224
X103.722Y-54.624
X104.422Y-52.524
X104.422Y-53.924
X105.122Y-51.824
X105.122Y-53.224
X105.122Y-54.624
X105.822Y-52.524
X105.822Y-53.924
T2
X80.645Y-85.979
X83.922Y-56.007
X84.01Y-53.404
X84.074Y-58.674
X85.471Y-69.977
X85.471Y-75.819
X85.7Y-51.232
X86.995Y-49.911
X89.408Y-72.263
X89.891Y-65.151
X90.297Y-76.962
X90.424Y-91.262
X90.678Y-54.483
X90.83Y-45.771
X91.211Y-46.507
X91.222Y-47.371
X91.821Y-53.467
X92.456Y-50.292
X92.669Y-48.473
X92.71Y-61.976
X93.599Y-49.53
X93.726Y-65.024
X94.361Y-48.768
X94.996Y-66.04
X95.25Y-60.452
X95.504Y-47.498
X95.606Y-56.871
X95.606Y-58.145
X95.631Y-51.795
X95.652Y-53.065
X95.656Y-54.331
X95.656Y-55.601
X95.885Y-65.024
X96.774Y-66.04
X97.282Y-70.739
X97.663Y-73.279
X99.314Y-70.866
X99.746Y-46.431
X100.178Y-52.019
X100.584Y-55.118
X101.93Y-46.355
X101.981Y-59.055
X102.489Y-65.278
X104.115Y-66.751
X105.029Y-79.248
X105.283Y-81.422
X105.359Y-60.147
X105.918Y-72.898
X105.918Y-89.052
X106.07Y-46.253
X106.807Y-79.248
X107.188Y-68.428
X107.747Y-56.54
X108.204Y-81.422
X108.356Y-52.375
X108.458Y-89.154
X108.712Y-65.405
X108.814Y-77.8
X108.89Y-79.019
X108.966Y-76.886
X109.347Y-59.436
X109.347Y-68.961
X109.474Y-70.917
X109.576Y-75.997
X110.465Y-46.203
X110.49Y-54.356
X110.998Y-89.154
X111.303Y-72.644
X112.7Y-81.204
X113.716Y-80.315
X114.833Y-79.35
X115.669Y-70.259
X115.9Y-78.384
X116.078Y-69.342
X116.078Y-89.154
X116.281Y-58.115
X116.307Y-56.896
X116.307Y-59.436
X116.357Y-55.626
X116.357Y-60.655
X116.383Y-54.356
X116.586Y-64.77
X117.094Y-63.5
X117.729Y-81.153
X118.237Y-64.77
X119.253Y-51.435
X119.888Y-80.772
X120.015Y-66.751
X120.523Y-52.832
X120.523Y-58.674
X120.777Y-70.612
X121.107Y-89.103
X121.412Y-70.104
X122.047Y-74.295
X122.047Y-80.518
X122.809Y-69.928
X122.936Y-72.644
X123.52Y-46.506
X123.749Y-89.154
X124.333Y-73.406
X124.539Y-69.928
X124.584Y-56.491
X125.166Y-61.041
X125.857Y-79.375
X127.33Y-46.609
X127.635Y-76.708
X128.397Y-78.867
X128.651Y-80.772
X128.829Y-89.103
X129.21Y-46.634
X129.413Y-55.118
X129.54Y-51.943
X129.565Y-61.366
X129.921Y-76.073
X130.429Y-79.375
X130.556Y-55.626
X131.524Y-51.971
X131.624Y-52.765
X131.826Y-55.753
X132.461Y-48.514
X132.588Y-60.96
X132.588Y-62.357
X132.851Y-53.788
X133.096Y-55.753
X133.502Y-47.752
X133.909Y-89.662
X134.823Y-45.314
X135.369Y-49.009
X136.271Y-47.193
X136.398Y-57.658
X136.398Y-58.42
X136.779Y-73.914
X136.906Y-66.878
X137.033Y-71.755
X137.287Y-56.769
X137.465Y-54.712
X139.802Y-63.576
X140.716Y-46.101
X140.843Y-74.549
X140.9Y-64.891
X141.478Y-75.057
X142.875Y-46.355
X143.154Y-59.69
X143.256Y-57.023
X143.764Y-45.593
X144.983Y-59.538
X145.44Y-64.414
X147.066Y-59.03
X147.625Y-64.008
X148.59Y-57.15
X149.226Y-45.086
X149.352Y-49.403
X150.241Y-48.133
X150.495Y-46.355
X150.673Y-58.522
X152.781Y-51.816
X153.035Y-52.578
X153.035Y-54.61
X153.568Y-53.594
X155.829Y-48.387
X156.464Y-60.833
X157.734Y-49.149
X157.734Y-58.458
X158.115Y-46.355
X158.369Y-55.499
X162.496Y-77.406
X164.033Y-72.365
X164.998Y-66.65
X168.834Y-74.168
X169.012Y-64.771
X169.799Y-74.803
T3
X113.537Y-76.199
X117.856Y-76.2
X125.451Y-46.355
X129.286Y-60.071
X138.236Y-46.288
X138.262Y-51.551
X139.243Y-49.849
X139.319Y-57.404
X145.669Y-56.642
X147.346Y-56.743
T7
X79.578Y-74.244
X79.578Y-79.324
X82.118Y-76.784
T10
X97.041Y-87.3
X99.581Y-87.3
X102.121Y-87.3
X104.661Y-87.3
X107.201Y-87.3
X109.741Y-87.3
X112.281Y-87.3
X114.821Y-87.3
X117.361Y-87.3
X119.901Y-87.3
X122.441Y-87.3
X124.981Y-87.3
X127.521Y-87.3
X130.061Y-87.3
X132.601Y-87.3
X135.141Y-87.3
T11
X91.542Y-87.3
X91.542Y-118.3
X166.54Y-118.3
X166.541Y-87.3
T12
X66.04Y-71.12
X66.04Y-116.84
X154.94Y-43.434
X192.786Y-63.754
X193.04Y-117.094
T4
G00X71.559Y-90.737
M15
G01X71.559Y-91.237
M16
G05
G00X71.559Y-95.055
M15
G01X71.559Y-95.555
M16
G05
G00X78.417Y-90.737
M15
G01X78.417Y-91.237
M16
G05
G00X78.417Y-95.055
M15
G01X78.417Y-95.555
M16
G05
G00X181.796Y-90.521
M15
G01X181.796Y-91.021
M16
G05
G00X181.796Y-94.839
M15
G01X181.796Y-95.339
M16
G05
G00X188.653Y-90.521
M15
G01X188.653Y-91.021
M16
G05
G00X188.653Y-94.839
M15
G01X188.653Y-95.339
M16
G05
T5
G00X135.456Y-42.897
M15
G01X135.456Y-43.297
M16
G05
G00X140.296Y-42.897
M15
G01X140.296Y-43.297
M16
G05
T6
G00X65.59Y-100.706
M15
G01X65.59Y-101.206
M16
G05
G00X65.59Y-103.246
M15
G01X65.59Y-103.746
M16
G05
G00X65.59Y-105.786
M15
G01X65.59Y-106.286
M16
G05
G00X72.325Y-113.021
M15
G01X72.825Y-113.021
M16
G05
G00X74.865Y-113.021
M15
G01X75.365Y-113.021
M16
G05
G00X77.406Y-113.021
M15
G01X77.906Y-113.021
M16
G05
G00X135.146Y-39.847
M15
G01X135.146Y-40.347
M16
G05
G00X140.606Y-39.847
M15
G01X140.606Y-40.347
M16
G05
G00X175.826Y-100.491
M15
G01X175.826Y-100.991
M16
G05
G00X175.826Y-103.031
M15
G01X175.826Y-103.531
M16
G05
G00X175.826Y-105.571
M15
G01X175.826Y-106.071
M16
G05
G00X182.561Y-112.806
M15
G01X183.061Y-112.806
M16
G05
G00X185.101Y-112.806
M15
G01X185.601Y-112.806
M16
G05
G00X187.641Y-112.806
M15
G01X188.141Y-112.806
M16
G05
T8
G00X67.391Y-95.796
M15
G01X67.391Y-96.396
M16
G05
G00X67.391Y-110.596
M15
G01X67.391Y-111.196
M16
G05
G00X82.79Y-110.596
M15
G01X82.79Y-111.196
M16
G05
G00X82.804Y-95.775
M15
G01X82.804Y-96.375
M16
G05
G00X145.624Y-69.949
M15
G01X145.624Y-70.349
M16
G05
G00X145.625Y-72.429
M15
G01X145.625Y-72.829
M16
G05
G00X145.64Y-67.418
M15
G01X145.64Y-67.818
M16
G05
G00X160.083Y-72.398
M15
G01X160.083Y-72.798
M16
G05
G00X160.105Y-67.418
M15
G01X160.105Y-67.818
M16
G05
G00X173.648Y-70.101
M15
G01X173.648Y-70.501
M16
G05
G00X173.649Y-72.581
M15
G01X173.649Y-72.981
M16
G05
G00X173.665Y-67.57
M15
G01X173.665Y-67.97
M16
G05
G00X177.626Y-95.581
M15
G01X177.626Y-96.181
M16
G05
G00X177.626Y-110.381
M15
G01X177.626Y-110.981
M16
G05
G00X188.107Y-72.55
M15
G01X188.107Y-72.95
M16
G05
G00X188.129Y-67.57
M15
G01X188.129Y-67.97
M16
G05
G00X193.026Y-110.381
M15
G01X193.026Y-110.981
M16
G05
G00X193.04Y-95.56
M15
G01X193.04Y-96.16
M16
G05
T9
G00X154.161Y-75.977
M15
G01X151.961Y-75.977
M16
G05
G00X154.211Y-64.313
M15
G01X152.011Y-64.313
M16
G05
G00X182.185Y-76.129
M15
G01X179.986Y-76.129
M16
G05
G00X182.236Y-64.465
M15
G01X180.035Y-64.465
M16
G05
M30
